{"glyphs":{"0":{"ha":636,"x_min":0,"x_max":0,"o":"m 604 697 b 526 272 631 534 611 424 b 394 81 498 223 436 133 b 309 6 362 41 345 26 b 205 -10 279 -10 239 -17 b 62 129 137 2 84 53 b 38 215 47 180 43 191 b 67 608 8 348 16 457 b 168 834 91 680 131 770 b 201 899 186 866 201 894 b 209 913 201 901 204 907 b 215 926 213 919 216 925 b 217 930 214 927 215 929 b 220 936 220 931 221 933 b 222 942 219 939 220 941 b 225 947 224 943 226 945 b 227 952 224 949 225 951 b 231 957 230 953 231 955 b 235 962 231 959 233 961 b 239 968 237 963 239 966 b 246 974 239 970 242 973 b 251 980 250 976 252 978 b 255 987 250 983 251 985 b 262 993 258 988 262 991 b 267 997 263 995 265 997 b 273 1001 269 997 271 999 b 290 1006 275 1004 280 1005 b 342 1033 308 1006 325 1015 b 360 1047 350 1041 358 1047 b 384 1027 362 1047 373 1038 b 408 1007 395 1016 406 1007 b 412 1003 410 1007 412 1005 b 418 999 413 1001 416 999 b 424 996 421 999 423 998 b 437 990 425 994 431 992 b 447 977 445 988 448 983 b 466 952 446 968 446 967 b 562 838 508 918 542 878 b 604 697 587 789 591 775 m 414 438 b 437 637 439 502 446 566 b 372 800 427 719 408 764 b 331 771 355 816 360 819 b 201 436 266 664 220 544 b 229 194 187 359 198 261 l 236 178 l 244 183 b 268 206 248 186 259 196 b 414 438 324 267 386 366 "},"1":{"ha":549,"x_min":0,"x_max":0,"o":"m 29 15 b -41 60 -40 52 -41 53 b 7 158 -41 65 -20 106 b 84 303 34 208 69 273 b 314 744 120 369 314 743 b 258 728 314 745 262 730 b 246 705 256 726 250 716 b 230 686 237 685 237 684 b 219 684 225 687 222 687 b 205 687 217 680 215 681 l 193 695 l 183 689 b 151 706 169 680 163 683 l 143 724 l 116 735 b 88 748 102 741 89 747 b 88 758 87 749 87 753 b 86 769 91 764 90 766 l 80 772 l 88 785 b 96 799 93 792 96 798 b 90 811 96 800 93 806 b 88 825 83 821 83 821 b 90 831 90 826 91 829 b 118 855 88 835 101 847 b 140 880 132 862 133 864 b 156 896 148 897 148 897 b 165 896 161 895 165 895 b 168 903 165 897 166 900 b 184 899 172 907 172 907 l 195 891 l 208 900 b 223 905 217 905 221 907 b 355 941 230 900 318 924 b 374 947 363 945 371 947 b 381 950 377 947 380 949 b 388 951 382 951 385 952 b 396 953 393 950 395 951 b 403 955 397 957 399 957 b 414 955 407 953 409 953 b 425 954 418 958 420 957 b 436 954 431 950 431 950 b 447 952 440 958 441 958 b 458 950 452 947 454 947 b 469 947 463 953 464 953 b 481 942 473 942 476 941 b 489 938 486 943 488 942 b 495 932 490 935 492 932 b 527 904 501 932 524 911 b 531 899 528 901 530 899 b 534 893 532 899 534 897 b 538 885 534 890 535 886 b 540 878 540 884 541 882 b 544 867 539 873 540 870 b 546 858 550 862 550 862 b 547 846 542 854 542 853 b 548 834 552 839 552 839 b 547 821 543 829 543 828 b 546 811 551 814 551 814 b 543 800 542 809 541 807 b 540 790 544 793 543 791 b 537 781 537 789 536 787 b 535 773 539 775 538 773 b 531 767 533 773 531 771 b 527 761 531 763 530 761 b 524 754 525 761 524 758 b 521 748 524 751 522 748 b 518 745 520 748 518 747 b 507 729 518 743 514 737 b 464 659 501 723 475 682 b 432 600 457 646 442 620 b 358 459 422 581 388 517 b 177 114 279 306 253 257 b 102 -23 105 -20 104 -23 b 30 15 101 -23 68 -6 "},"2":{"ha":863,"x_min":0,"x_max":0,"o":"m 91 39 b 77 42 86 41 80 42 b 65 49 74 43 69 46 b 44 53 59 55 58 55 b 14 52 35 52 22 51 b -4 62 -1 54 -2 54 b -12 70 -6 68 -8 70 b -18 83 -17 70 -18 72 l -18 95 l -31 100 b -40 119 -44 106 -46 109 b -43 127 -38 123 -39 125 b -47 144 -47 130 -48 133 b -35 178 -46 161 -44 165 b -31 198 -29 187 -29 189 b -24 213 -34 212 -34 211 b -14 220 -19 214 -15 217 b -9 225 -13 222 -11 225 b -4 230 -7 225 -5 227 b 3 235 -3 232 0 235 b 12 246 6 235 9 238 b 23 255 17 257 18 257 b 36 259 27 252 29 253 b 46 266 40 263 44 266 b 93 294 53 266 73 278 b 428 585 146 336 369 530 b 593 771 496 649 568 730 b 613 818 603 787 615 816 b 553 835 609 822 574 832 b 474 835 523 840 500 840 b 404 794 439 829 404 808 b 440 753 404 789 413 779 b 474 716 459 734 475 718 b 368 602 474 713 383 615 l 362 596 l 353 602 b 326 619 349 606 336 614 b 239 708 285 642 259 668 b 221 760 227 731 224 741 b 256 908 212 812 224 861 b 555 1013 307 984 427 1026 b 748 945 660 1003 706 986 b 800 814 785 908 803 864 b 784 746 799 790 792 761 b 781 737 782 742 781 738 b 770 717 781 736 776 727 b 755 691 764 707 757 695 b 681 599 751 682 713 635 b 596 510 667 583 629 543 b 390 323 540 454 501 419 b 336 276 364 301 340 279 l 331 271 l 348 273 b 540 297 357 274 444 285 b 723 318 636 308 718 318 b 734 310 732 318 733 317 b 753 155 735 303 753 158 b 509 121 753 152 714 146 b 167 73 250 89 179 79 b 151 68 162 71 155 69 b 144 61 147 67 145 65 b 130 57 143 55 143 55 b 114 54 118 58 116 58 b 106 43 113 51 110 46 b 91 39 100 37 99 36 "},"3":{"ha":1076,"x_min":0,"x_max":0,"o":"m 99 75 b 61 233 96 80 60 231 b 183 268 64 237 70 239 b 690 419 435 332 615 386 b 818 501 754 448 801 478 l 826 512 l 817 515 b 650 520 786 525 708 528 b 489 485 586 511 489 490 b 479 480 489 484 484 482 b 455 461 459 475 457 474 b 435 448 453 448 448 444 b 415 443 423 451 420 450 b 404 437 412 437 410 436 b 390 444 400 437 394 441 b 370 446 384 450 384 450 b 341 445 355 442 344 441 b 335 447 341 446 338 447 b 328 460 332 447 330 450 b 315 475 325 471 324 473 b 302 478 310 476 304 478 b 292 483 300 478 295 480 b 289 501 286 489 286 490 l 292 513 l 283 519 b 276 539 275 524 275 525 b 291 576 277 554 281 563 b 294 591 296 582 297 584 b 307 610 291 602 295 608 b 324 638 318 612 318 612 b 337 643 325 644 326 644 b 356 652 349 641 349 642 b 366 661 360 658 364 662 b 370 661 367 660 369 660 b 379 667 371 662 375 665 b 435 720 382 669 408 693 b 600 905 511 794 563 853 l 619 931 l 590 932 b 487 916 558 933 524 928 l 466 909 l 477 898 l 466 882 b 383 764 432 831 385 764 b 374 767 382 763 378 765 b 349 775 370 769 359 772 b 328 782 339 777 330 780 b 323 782 327 783 324 783 b 317 785 321 782 319 783 b 311 788 315 787 313 788 b 305 790 309 787 306 788 b 298 794 303 792 300 794 b 295 796 296 794 295 795 b 288 801 295 798 292 800 b 282 808 285 803 282 805 b 278 810 282 810 281 811 b 272 815 275 809 273 811 b 266 821 271 819 268 821 b 262 826 263 821 262 824 b 258 832 262 829 260 832 b 254 837 256 832 254 834 b 250 842 254 839 252 842 b 247 846 248 842 247 844 b 244 853 247 849 246 852 b 235 878 242 855 237 871 b 234 880 235 879 234 880 b 233 888 234 881 233 884 b 230 900 232 892 231 897 b 231 906 229 902 230 905 b 231 911 233 907 233 909 b 230 918 230 913 229 916 b 233 932 232 920 233 926 b 236 945 233 939 235 944 b 238 951 238 946 238 949 b 240 957 237 954 237 956 b 244 964 242 958 244 961 b 248 972 244 967 246 971 b 252 978 250 972 252 975 b 255 984 252 981 253 983 b 259 991 258 985 259 988 b 263 996 259 994 261 996 b 267 1000 265 996 267 998 b 271 1003 267 1002 268 1003 b 274 1006 273 1003 274 1005 b 288 1019 274 1010 286 1021 b 291 1022 289 1018 290 1020 b 296 1026 292 1024 294 1026 b 300 1028 298 1026 300 1027 b 394 1073 303 1035 356 1060 b 525 1105 424 1082 488 1098 b 683 1106 567 1113 658 1113 b 701 1101 691 1104 699 1101 b 706 1099 704 1100 706 1100 b 709 1098 706 1099 708 1099 b 713 1097 710 1098 712 1097 b 716 1096 714 1097 715 1096 b 752 1077 721 1095 748 1081 b 817 972 790 1047 813 1008 b 813 913 819 948 818 929 b 810 904 812 908 810 905 b 792 864 811 899 794 864 b 790 861 791 864 790 863 b 712 764 790 856 761 820 b 659 704 687 737 663 710 l 650 694 l 661 696 b 853 693 700 702 827 700 b 870 689 858 691 865 690 b 960 646 902 683 939 666 b 1011 565 981 625 1006 586 b 1014 550 1012 561 1013 554 b 1007 461 1018 529 1015 485 b 845 300 987 403 927 343 b 616 210 787 269 688 231 b 489 174 587 202 530 186 b 362 138 448 162 391 146 b 104 73 294 120 109 73 b 99 75 102 73 100 74 "},"4":{"ha":767,"x_min":0,"x_max":0,"o":"m 442 -61 b 365 -41 401 -51 366 -42 b 370 -10 365 -40 367 -26 b 467 393 385 56 451 335 b 482 455 476 427 483 455 b 336 429 482 456 400 441 b 250 405 282 418 271 415 b 226 392 237 399 226 393 b 220 390 225 391 223 390 b 215 388 218 390 215 389 b 210 386 215 386 213 386 b 204 384 207 388 205 387 b 196 381 202 381 200 380 b 186 379 191 382 189 382 b 175 377 184 375 182 375 b 161 375 168 380 167 380 b 142 378 154 368 153 369 b 108 380 131 386 122 387 l 97 375 l 94 382 b 80 395 93 386 86 392 b 69 403 74 399 69 402 b 65 405 69 404 67 405 b 61 408 63 405 61 406 b 55 410 61 409 58 410 b 47 422 50 410 49 412 b 39 436 46 431 44 434 b 33 449 33 439 32 441 b 30 460 33 456 32 459 b 33 484 24 462 25 470 l 39 496 l 34 509 b 29 523 31 516 28 522 b 43 530 29 523 36 526 b 56 548 56 537 56 537 b 58 567 56 554 57 562 b 67 573 59 574 60 575 b 83 586 76 572 79 574 b 90 594 85 590 87 594 b 135 662 93 594 108 616 b 233 820 158 699 202 770 b 333 979 281 895 325 965 b 336 990 334 980 335 985 b 339 1001 337 994 338 999 b 340 1005 341 1002 341 1004 b 344 1012 339 1006 341 1009 b 347 1023 350 1016 350 1017 b 359 1037 345 1029 345 1030 b 374 1046 367 1042 374 1046 b 376 1063 375 1047 376 1054 l 376 1079 l 393 1080 b 416 1088 408 1080 410 1081 b 432 1102 419 1093 426 1099 b 445 1110 437 1104 443 1108 b 453 1111 447 1113 449 1114 b 465 1110 456 1109 460 1109 b 475 1110 470 1112 474 1112 b 482 1108 475 1109 479 1108 b 496 1095 486 1108 490 1104 l 503 1082 l 538 1084 l 539 1045 l 557 1030 b 577 1015 567 1023 576 1016 b 575 1011 577 1015 576 1013 b 576 996 570 1007 571 1002 b 572 983 580 992 580 991 b 566 970 567 978 565 974 b 554 958 567 966 564 964 l 541 951 l 545 919 l 502 917 l 487 897 b 295 595 468 871 292 595 b 355 606 295 595 322 600 b 470 627 388 612 440 622 b 530 638 500 631 527 636 b 539 653 534 639 536 644 b 570 757 541 661 555 707 b 611 905 602 861 609 885 b 623 938 612 914 616 926 l 633 956 l 627 969 b 620 989 624 977 621 985 b 624 997 618 993 618 995 b 629 1003 628 998 630 1001 b 648 1016 627 1008 637 1015 b 663 1027 656 1017 659 1019 b 691 1055 668 1037 686 1055 b 710 1046 693 1055 701 1051 l 725 1037 l 746 1046 b 772 1050 767 1055 768 1055 b 782 1046 775 1046 777 1045 b 789 1044 788 1048 789 1047 b 792 1040 789 1042 791 1040 b 807 1009 799 1040 805 1026 b 810 991 808 999 809 991 b 819 985 810 990 815 988 b 826 960 830 980 832 972 b 817 940 821 951 817 942 b 823 920 817 938 820 929 b 828 901 827 912 829 903 b 827 893 827 899 826 895 b 825 888 827 890 826 888 b 822 882 823 888 822 885 b 820 868 822 879 821 873 b 799 859 819 861 819 861 l 780 857 l 750 763 b 702 603 734 712 712 640 l 683 537 l 687 518 b 677 492 691 496 691 495 b 648 409 669 491 671 496 b 578 129 628 336 605 243 b 542 -22 566 77 550 10 b 522 -79 529 -71 527 -79 b 442 -61 520 -79 484 -71 "},"5":{"ha":997,"x_min":0,"x_max":0,"o":"m -16 33 b -49 109 -34 73 -49 108 b 79 172 -49 113 -32 121 b 514 376 284 264 372 306 b 724 501 649 444 689 467 b 712 586 764 538 761 561 b 610 604 684 601 667 604 b 526 598 569 604 553 603 b 311 540 468 588 374 563 b 267 519 271 525 267 523 b 250 509 267 517 260 513 l 233 503 l 231 490 b 224 478 229 478 228 477 b 217 476 221 479 219 478 b 200 476 215 472 213 472 l 184 481 l 164 470 b 132 463 143 458 137 457 b 123 464 129 467 128 467 b 107 480 116 460 113 463 b 100 496 104 487 101 494 b 82 501 99 497 90 499 b 67 510 67 503 66 504 b 62 518 67 515 66 517 b 65 556 56 520 57 526 l 70 573 l 64 585 b 58 614 55 602 53 612 b 62 619 61 615 62 617 b 69 624 62 621 65 623 b 89 648 83 628 87 632 b 94 664 90 659 91 664 b 108 694 97 665 102 676 b 166 847 119 729 146 798 b 184 889 175 866 183 885 b 180 941 186 895 185 907 b 176 987 174 976 173 986 b 200 992 178 988 189 991 b 234 1025 232 997 230 995 b 243 1051 238 1050 238 1052 b 253 1055 247 1050 250 1052 b 260 1059 255 1059 258 1060 b 269 1063 263 1058 266 1059 b 301 1053 272 1068 272 1068 b 363 1034 328 1039 330 1038 b 400 1027 382 1031 399 1028 b 422 1027 402 1025 410 1025 b 578 1047 442 1030 552 1044 b 687 1059 587 1047 636 1053 b 801 1070 781 1071 799 1072 b 820 908 804 1068 822 910 b 808 904 819 907 814 905 b 559 872 798 901 670 885 b 429 856 528 869 470 861 b 350 840 362 846 354 845 b 315 759 346 834 339 818 l 298 718 l 331 727 b 534 775 422 754 488 770 b 673 780 582 780 642 782 b 849 715 730 775 793 752 b 924 617 880 694 911 653 b 913 449 943 566 938 499 b 611 233 876 376 808 328 b 463 161 570 213 503 181 b 27 -38 349 106 55 -28 l 17 -41 l -16 33 "},"6":{"ha":693,"x_min":0,"x_max":0,"o":"m 630 551 b 630 529 631 540 630 530 b 628 519 629 528 628 523 b 597 439 626 504 611 464 b 476 247 576 398 503 283 b 346 110 450 212 378 136 b 286 71 328 95 299 76 b 185 63 257 59 217 56 b 132 85 167 67 132 81 b 129 87 132 86 131 87 b 98 111 125 87 113 97 b 18 339 42 167 13 250 b 40 526 21 392 33 491 b 200 852 60 621 109 720 b 294 971 235 904 257 931 b 322 1003 309 987 322 1002 b 329 1010 322 1004 325 1007 b 335 1021 336 1014 337 1015 b 332 1028 333 1024 332 1028 b 356 1038 332 1029 343 1033 b 400 1075 382 1049 389 1054 b 418 1090 410 1095 410 1095 b 431 1091 424 1085 425 1085 b 438 1094 434 1095 437 1096 b 451 1091 439 1092 445 1091 b 465 1086 460 1091 463 1090 b 472 1082 467 1082 470 1081 b 495 1066 487 1088 487 1087 b 504 1043 499 1055 503 1045 b 531 1027 506 1041 518 1034 b 552 1007 554 1014 554 1013 b 555 995 550 1002 550 1000 b 550 975 561 988 560 984 b 548 958 544 969 544 965 b 546 948 551 953 550 952 b 543 938 541 945 540 944 b 543 930 544 934 544 931 b 521 921 542 929 532 925 b 483 884 499 913 498 911 b 468 869 475 870 474 868 b 457 867 464 870 461 869 b 446 866 453 863 452 863 b 418 847 440 871 440 870 b 304 694 379 805 343 756 b 240 575 282 659 238 577 b 280 603 241 574 259 587 b 380 668 330 642 348 654 b 445 690 408 682 417 685 b 528 686 473 695 524 693 b 532 685 529 685 531 684 b 538 684 534 686 536 686 b 549 680 540 683 545 681 b 559 675 553 679 558 677 b 564 671 559 673 562 671 b 568 668 566 671 568 670 b 571 666 568 667 569 666 b 614 615 577 666 606 633 b 622 596 619 606 622 597 b 624 590 622 594 623 592 b 626 584 626 588 626 585 b 627 580 625 583 625 581 b 629 574 628 579 629 577 b 630 551 629 572 630 561 m 411 469 l 417 482 l 407 476 b 251 364 376 457 324 420 b 202 291 191 317 195 323 b 223 251 205 276 218 251 b 239 259 225 251 232 254 b 357 382 276 282 322 330 b 411 469 378 412 401 450 "},"7":{"ha":708,"x_min":0,"x_max":0,"o":"m 178 31 b 105 73 113 63 104 68 b 390 643 107 80 363 591 b 485 804 414 687 460 765 b 497 826 492 816 498 826 b 449 816 497 827 475 822 b 288 786 384 801 329 790 b 222 756 234 779 240 782 l 207 734 l 198 739 b 186 743 193 742 188 743 b 170 751 183 742 177 746 l 157 762 l 144 756 b 130 753 134 752 131 751 b 123 762 129 755 126 759 b 114 782 120 765 116 773 l 110 798 l 87 814 b 65 836 66 828 63 831 b 64 844 65 839 65 843 b 69 863 59 846 61 854 l 77 873 l 71 885 b 69 903 66 896 66 898 b 77 910 71 906 74 909 b 81 916 79 910 81 913 b 84 921 81 918 82 921 b 86 924 85 921 86 922 b 124 942 86 929 109 940 b 147 956 137 944 139 945 b 161 972 151 962 158 969 b 178 966 166 976 167 975 l 190 956 l 202 961 b 225 964 214 966 225 968 b 243 959 225 963 233 960 b 284 958 257 956 265 956 b 477 999 322 963 403 980 b 566 1029 541 1015 549 1018 b 591 1043 577 1035 588 1041 b 597 1048 594 1045 597 1047 b 603 1050 597 1049 600 1050 b 609 1053 607 1050 609 1051 b 617 1055 609 1056 611 1057 b 625 1058 623 1054 625 1055 b 636 1062 625 1064 628 1065 b 645 1065 641 1060 642 1061 l 649 1071 l 675 1057 l 684 1064 b 694 1072 689 1069 694 1072 b 701 1066 695 1072 698 1069 b 719 1057 705 1062 711 1059 b 753 1043 738 1054 752 1048 b 757 1039 753 1041 755 1039 b 761 1036 759 1039 761 1038 b 766 1031 761 1034 763 1031 b 771 1026 769 1030 771 1028 b 776 1019 771 1025 773 1022 b 781 1009 779 1015 781 1011 b 785 999 780 1007 782 1003 b 790 976 790 995 791 991 b 794 953 789 962 790 958 l 799 946 l 773 927 l 775 911 b 778 892 776 902 777 894 b 768 886 779 889 776 888 b 755 872 758 884 757 883 b 745 860 753 861 752 860 b 736 854 740 860 738 858 b 729 847 734 850 731 847 b 722 844 726 847 723 846 b 717 840 721 841 719 840 b 666 771 711 840 701 826 b 539 558 616 693 568 613 b 386 256 525 531 456 396 b 255 -2 316 116 257 0 b 178 31 252 -6 245 -3 "},"8":{"ha":817,"x_min":0,"x_max":0,"o":"m 796 226 b 792 181 797 217 794 186 b 790 175 791 179 790 177 b 784 162 788 168 785 162 b 781 158 782 162 781 160 b 779 153 781 155 780 153 b 777 148 778 153 777 151 b 774 143 777 145 776 143 b 772 140 773 143 772 142 b 768 135 772 138 770 136 b 765 130 766 135 765 132 b 761 127 765 128 763 127 b 758 123 759 127 758 125 b 755 120 758 121 757 120 b 748 114 754 120 750 117 b 738 107 745 111 740 108 b 734 103 736 106 734 105 b 729 99 734 102 732 100 b 714 91 726 99 720 95 b 604 53 697 80 655 65 b 407 25 538 38 478 29 b 309 25 361 22 350 22 b 55 115 198 33 105 65 b 22 160 37 132 33 138 b 2 234 7 190 3 207 b 40 360 0 279 11 314 b 169 487 55 382 120 447 b 211 521 190 504 209 519 b 199 541 213 523 211 527 b 130 642 179 566 146 614 b 93 778 103 689 91 734 b 239 985 99 860 140 918 b 492 1091 303 1028 396 1067 b 681 1101 580 1113 640 1116 b 713 1085 697 1094 713 1087 b 716 1083 713 1084 714 1083 b 765 1032 723 1083 755 1049 b 773 1014 770 1022 774 1014 b 776 1008 772 1014 774 1012 b 778 1003 778 1005 779 1003 b 780 994 778 1003 778 999 b 780 922 784 981 784 936 b 773 900 778 916 775 906 b 727 819 769 886 746 846 b 584 632 699 779 610 663 b 560 586 567 612 566 611 b 552 542 557 572 553 553 b 548 522 551 532 549 523 b 541 510 547 522 544 516 b 504 505 536 496 536 496 b 477 506 481 511 481 511 b 474 500 475 504 474 501 b 509 473 474 499 489 487 b 683 361 570 427 619 396 b 724 337 705 349 724 338 b 728 335 725 336 727 335 b 732 333 730 335 732 334 b 734 330 732 331 733 330 b 743 324 736 330 740 328 b 750 318 746 321 749 318 b 760 306 752 318 760 309 b 764 304 760 305 762 304 b 767 301 766 304 767 303 b 770 297 767 299 768 297 b 772 294 771 297 772 296 b 775 288 772 292 773 289 b 789 264 778 286 789 267 b 791 255 789 263 790 259 b 796 226 794 249 795 241 m 270 786 b 263 765 266 779 263 769 b 324 646 263 743 290 690 l 342 623 l 355 636 b 374 654 362 643 371 651 b 383 661 377 656 381 659 b 388 664 384 663 387 664 b 393 667 390 664 392 665 b 403 674 394 669 398 672 b 412 681 408 677 412 679 b 415 683 412 682 414 683 b 521 812 419 683 487 766 b 601 940 568 874 606 935 b 517 929 598 943 545 936 b 337 853 449 912 383 884 b 270 786 309 834 279 803 m 464 192 b 590 221 515 199 584 215 b 555 247 592 222 576 234 b 404 351 471 302 440 323 l 366 379 l 347 358 b 326 337 337 347 327 337 b 303 355 324 337 314 345 l 283 372 l 274 365 b 185 274 255 350 195 288 b 177 237 173 255 171 245 b 307 189 189 217 248 196 b 464 192 334 185 431 187 "},"9":{"ha":664,"x_min":0,"x_max":0,"o":"m 8 530 b 9 554 8 542 8 552 b 11 564 10 555 11 560 b 44 652 13 580 29 624 b 176 860 67 696 146 820 b 316 1008 204 898 282 980 b 382 1051 336 1024 368 1045 b 492 1060 413 1064 457 1067 b 549 1036 511 1055 549 1040 b 552 1033 549 1034 550 1033 b 586 1007 557 1033 570 1023 b 672 760 647 946 678 857 b 648 557 669 702 657 595 b 475 203 627 454 574 346 b 373 74 437 147 413 117 b 343 39 356 56 343 40 b 335 32 343 38 339 34 b 329 20 327 27 327 26 b 332 12 331 16 332 12 b 306 1 332 11 320 6 b 258 -39 277 -10 270 -16 b 239 -55 247 -61 247 -60 b 225 -56 232 -50 231 -50 b 217 -59 221 -60 218 -61 b 202 -56 216 -58 209 -56 b 187 -51 193 -56 190 -55 b 180 -46 185 -47 182 -45 b 155 -29 164 -53 164 -52 b 145 -4 151 -18 146 -6 b 116 13 143 -2 130 6 b 93 34 92 27 91 28 b 90 48 96 40 95 42 b 95 70 83 55 84 60 b 98 88 102 76 103 80 b 100 98 95 93 95 95 b 104 110 105 102 106 104 b 103 119 102 114 102 118 b 127 128 104 120 115 124 b 168 168 150 137 152 138 b 184 184 176 184 178 186 b 196 187 188 183 193 184 b 208 187 201 191 201 191 b 238 208 215 183 215 183 b 362 375 281 254 320 308 b 431 504 386 413 434 502 b 389 473 431 504 412 491 b 280 402 334 431 314 418 b 210 379 249 388 240 384 b 119 383 179 373 123 376 b 115 384 118 385 116 385 b 109 385 113 383 110 384 b 96 390 107 387 101 389 b 86 396 92 391 87 393 b 80 400 85 398 83 400 b 76 402 78 400 76 401 b 72 405 76 404 74 405 b 26 460 66 405 35 441 b 17 481 21 470 17 480 b 15 487 17 483 16 485 b 13 494 13 489 12 492 b 12 498 14 495 14 497 b 10 505 11 499 10 502 b 8 530 9 507 9 519 m 247 619 l 240 605 l 250 611 b 419 733 284 632 341 672 b 473 812 485 784 480 777 b 450 856 470 828 456 856 b 433 847 448 856 441 852 b 304 713 393 821 343 769 b 247 619 282 680 257 639 "},"\u0000":{"ha":0,"x_min":0,"x_max":0,"o":""},"\n":{"ha":0,"x_min":0,"x_max":0,"o":""},"\r":{"ha":0,"x_min":0,"x_max":0,"o":""}," ":{"ha":435,"x_min":0,"x_max":0,"o":""},"!":{"ha":383,"x_min":0,"x_max":0,"o":"m 203 284 b 322 154 232 256 292 186 b 213 48 306 129 232 73 b 180 29 195 29 198 25 b 55 136 159 40 80 121 b 65 160 57 139 71 155 b 133 238 76 187 107 195 b 163 276 149 258 162 275 b 172 272 163 276 167 275 b 204 284 181 262 196 282 m 140 375 l 57 391 b 123 1095 103 597 121 873 b 299 1090 157 1094 289 1092 b 301 939 302 1089 302 1062 b 237 369 302 702 272 537 b 140 374 224 343 199 369 "},"#":{"ha":1082,"x_min":0,"x_max":0,"o":"m 775 376 b 786 247 777 370 785 254 b 675 224 798 221 691 230 b 537 99 660 76 736 123 b 522 213 527 126 524 176 b 302 202 488 210 371 204 b 292 32 291 148 289 92 b 151 29 252 30 146 26 b 149 199 138 70 142 158 b 37 222 127 200 35 213 b 59 359 37 229 58 357 b 163 347 66 360 156 346 b 186 419 181 333 182 404 b 180 412 185 434 178 418 b 134 390 154 416 147 413 b 101 398 121 399 112 408 b 88 395 92 394 90 393 b 71 410 83 400 73 401 b 39 419 71 421 49 418 l 39 453 b 25 506 -7 475 44 477 b 24 519 20 516 20 516 b 46 560 29 533 43 543 b 75 559 53 560 68 559 b 115 570 90 581 92 591 b 144 581 121 573 143 588 b 204 574 158 577 183 577 b 212 704 208 613 224 681 b 218 731 204 705 216 724 b 232 785 190 755 232 757 b 252 824 234 796 240 825 b 266 833 259 822 263 829 b 345 808 312 804 294 876 b 381 801 354 806 372 803 b 386 779 382 797 384 779 b 390 767 391 777 394 776 b 413 730 383 760 406 739 b 366 686 401 719 378 697 b 351 575 362 658 355 591 b 561 580 395 574 545 578 b 573 719 563 589 585 732 b 586 749 568 720 584 744 b 602 803 557 791 592 773 b 627 837 608 814 614 837 b 636 839 632 836 634 836 b 663 830 636 848 657 832 b 697 838 675 834 692 856 b 755 804 709 810 729 811 b 761 774 751 794 755 783 b 750 751 759 769 750 754 b 747 715 756 736 774 724 b 713 595 719 711 716 609 b 995 640 711 589 940 633 b 1020 501 999 614 1021 509 b 732 449 1016 494 832 461 b 691 443 711 446 692 444 b 699 372 694 434 663 358 b 775 376 748 376 773 377 m 532 361 b 464 430 538 437 563 435 b 334 427 408 428 366 428 b 324 349 334 423 326 363 b 449 355 364 351 396 352 b 532 361 494 358 514 358 "},"(":{"ha":731,"x_min":0,"x_max":0,"o":"m 655 174 b 669 -2 658 141 672 7 b 402 -34 601 -9 464 -40 b 353 1032 -170 91 -8 754 b 365 1038 354 1037 357 1038 b 384 1055 380 1034 377 1052 b 414 1059 406 1050 408 1051 b 435 1063 421 1069 425 1069 b 491 1054 439 1058 486 1058 b 501 1050 494 1050 501 1057 b 508 1046 501 1047 504 1046 b 522 1038 518 1046 512 1037 b 528 1030 527 1038 528 1036 b 554 1017 525 1019 546 1020 b 572 972 551 997 553 982 b 525 842 534 927 539 891 b 487 845 516 842 497 844 b 474 824 484 839 477 829 b 373 783 428 863 423 833 b 428 157 172 595 126 214 b 655 174 443 155 641 178 "},")":{"ha":717,"x_min":0,"x_max":0,"o":"m 328 1066 b 378 0 901 941 739 278 b 365 -5 376 -4 374 -5 b 346 -22 351 -2 354 -19 b 316 -27 325 -18 322 -18 b 296 -31 309 -36 305 -37 b 239 -22 292 -25 244 -26 b 229 -18 237 -18 229 -24 b 222 -13 229 -15 227 -13 b 209 -5 212 -14 219 -5 b 202 2 203 -5 202 -4 b 176 15 205 13 185 13 b 159 60 179 36 177 51 b 205 191 196 106 191 142 b 243 188 215 190 234 188 b 257 209 246 193 253 203 b 358 250 303 169 307 200 b 303 876 558 438 605 819 b 76 858 287 877 90 854 b 61 1034 73 891 59 1025 b 328 1066 129 1041 266 1073 "},"+":{"ha":639,"x_min":0,"x_max":0,"o":"m 572 550 b 468 345 597 364 665 381 b 479 -16 473 320 477 78 b 298 -13 432 -13 329 -30 b 285 307 296 12 288 333 b 256 302 283 308 262 303 b 241 257 252 291 245 269 b 207 255 234 258 209 260 b 174 271 206 248 180 268 b 119 297 135 242 139 274 b 66 329 60 319 81 309 b 80 381 54 345 67 362 b 110 451 55 417 70 432 b 182 476 139 478 134 511 b 284 497 211 496 251 492 b 279 661 292 545 272 628 b 314 738 291 686 306 711 b 397 805 339 777 362 782 b 507 661 474 724 564 704 b 471 534 469 632 470 570 b 572 550 479 534 565 552 "},"/":{"ha":618,"x_min":0,"x_max":0,"o":"m 556 958 b 527 917 556 954 533 925 b 493 871 545 881 524 883 b 135 50 365 599 181 327 b 69 44 92 56 118 15 b -42 65 39 62 -11 59 b -39 92 -41 71 -40 85 b -31 199 -92 95 -26 170 b -6 238 -27 246 -28 237 b 207 715 60 433 87 499 b 318 950 287 854 305 905 b 318 1000 338 964 315 993 b 363 1032 330 1010 358 1011 b 400 1048 378 1064 381 1055 b 468 1050 433 1093 432 1033 b 498 1007 493 1065 489 1023 b 556 958 532 994 537 978 "},":":{"ha":325,"x_min":0,"x_max":0,"o":"m 56 170 b 80 343 55 172 79 342 b 252 320 82 345 250 322 b 224 146 253 325 230 122 b 138 158 221 146 182 151 b 56 170 94 164 57 170 m 258 609 b 282 567 264 599 276 578 b 257 538 265 560 276 543 b 227 508 229 536 253 503 b 173 504 194 510 231 473 b 127 479 162 498 139 485 l 123 487 b 109 495 119 494 117 495 b 90 528 97 489 94 517 b 62 531 83 529 69 530 b 60 597 74 576 22 528 b 42 631 56 606 47 623 b 51 661 55 636 54 648 b 83 681 64 665 84 666 b 98 707 87 708 86 707 b 137 710 119 709 102 726 b 196 718 164 695 172 705 b 224 700 202 699 221 719 b 262 684 223 685 249 687 b 267 654 262 675 257 653 b 258 609 283 656 262 621 "},"=":{"ha":649,"x_min":0,"x_max":0,"o":"m 192 393 b 246 383 210 396 248 407 b 563 385 325 383 484 384 l 563 206 l 554 204 b 421 202 549 204 489 202 b 278 195 306 201 295 200 b 183 194 248 186 212 180 b 157 170 177 188 164 176 l 129 199 b 83 208 117 199 79 196 b 55 237 83 213 62 231 b 64 268 57 245 62 260 b 37 299 58 276 44 291 b 67 326 45 306 60 319 b 86 382 63 353 51 382 b 141 395 118 385 90 417 b 166 420 147 401 160 413 b 192 393 172 413 185 400 m 612 621 b 617 464 612 610 619 474 b 178 441 563 455 265 436 b 147 433 166 426 165 415 b 65 463 130 462 75 447 b 56 475 64 467 61 472 b 52 499 43 482 52 487 b 60 572 41 546 5 510 b 56 631 59 586 57 616 b 88 646 66 637 82 639 b 117 644 89 654 110 645 b 139 669 122 650 133 663 b 176 639 148 661 167 646 b 349 630 275 646 239 622 b 612 621 495 627 617 666 "},"?":{"ha":588,"x_min":0,"x_max":0,"o":"m 435 212 b 440 143 475 211 445 170 b 437 86 458 114 475 107 b 439 55 438 78 438 63 b 367 40 394 50 441 19 b 307 23 345 31 318 -10 l 298 38 b 264 34 289 37 272 35 b 238 80 270 74 240 51 b 236 129 231 100 249 113 b 220 153 230 138 225 146 b 248 171 227 158 241 167 b 259 211 247 186 238 215 b 271 230 266 211 267 212 b 293 260 272 239 286 253 b 351 240 308 255 337 245 b 367 251 355 243 363 248 b 385 228 372 245 380 234 b 421 223 393 228 426 233 b 435 212 421 218 423 216 m 386 1129 b 454 574 729 1075 686 757 b 448 460 449 563 447 525 b 445 407 449 432 448 420 b 400 257 446 375 415 259 b 315 280 397 257 359 267 b 233 303 270 292 234 302 b 259 416 232 310 254 395 b 275 646 253 506 250 608 b 442 878 299 734 438 786 b 287 893 434 951 328 947 b 301 712 325 898 302 734 b 117 718 237 685 176 674 b 386 1129 -54 866 204 1159 "},"@":{"ha":907,"x_min":0,"x_max":0,"o":"m 384 909 b 829 429 667 1021 890 696 b 760 252 823 374 789 303 b 786 256 760 252 785 258 b 820 132 787 254 820 136 b 303 21 742 99 378 2 b 384 909 -171 130 8 787 m 650 343 b 333 723 800 557 589 946 b 410 165 114 582 57 120 b 554 196 444 170 506 184 b 506 336 521 239 513 271 b 435 238 475 301 460 261 b 423 228 436 232 422 234 b 408 219 424 220 407 227 b 391 212 407 209 394 220 b 382 210 388 208 387 207 b 372 208 377 212 376 212 b 353 207 366 199 361 213 b 282 250 325 207 296 226 b 269 277 271 266 276 264 b 265 295 260 285 274 288 b 455 609 253 410 391 533 b 470 622 463 620 465 616 b 515 631 476 636 503 622 b 560 644 531 636 545 642 b 572 648 568 643 569 643 b 606 660 581 664 597 655 b 619 654 611 664 611 664 b 656 623 638 630 649 668 b 679 598 672 621 686 615 b 689 574 671 589 696 581 b 690 565 687 571 687 569 b 680 526 695 552 667 550 b 658 516 684 521 663 518 b 650 343 645 476 641 386 "},"A":{"ha":749,"x_min":0,"x_max":0,"o":"m 685 550 b 569 505 689 549 592 513 b 630 174 574 438 604 229 b 672 163 641 171 661 166 b 675 142 671 156 666 144 b 678 134 681 139 682 136 b 672 106 677 127 666 112 b 673 99 675 103 675 101 b 675 68 666 93 674 75 b 637 30 659 59 640 57 b 615 15 633 8 624 26 b 607 13 612 11 611 11 b 592 4 601 18 596 8 b 571 9 585 9 577 18 b 564 7 568 5 567 5 b 491 50 535 6 520 45 b 475 85 497 67 489 78 b 421 451 475 174 431 342 b 291 408 415 450 314 416 b 138 26 222 258 143 72 b 49 -17 113 -52 146 -35 b -6 84 -48 1 -20 1 b 81 312 1 129 51 240 b 58 305 81 312 70 309 b 33 298 46 300 35 297 b 21 310 29 299 27 312 b 12 319 14 307 19 318 b 4 328 6 319 9 328 b 1 333 2 328 1 330 b -6 345 0 340 -7 334 b -9 360 -5 354 -10 353 b -12 370 -7 367 -14 362 b -17 390 -12 379 -16 375 b -16 406 -21 393 -8 403 b -15 416 -19 410 -19 411 b -12 438 -8 425 -21 432 b 29 495 -9 450 11 488 b 37 501 34 495 31 502 b 43 505 39 501 42 503 b 56 512 44 509 54 507 b 62 513 57 515 58 515 b 76 519 67 508 72 516 l 86 510 b 104 516 91 512 103 523 b 113 514 106 512 107 512 b 179 530 117 512 160 521 b 350 919 229 648 326 835 b 358 936 349 925 361 928 b 366 947 356 941 357 942 b 384 975 384 951 369 973 b 440 1004 402 970 424 1006 b 455 1005 449 1003 449 1009 b 467 1006 459 1001 463 1010 b 499 993 477 1003 492 1000 b 523 977 506 985 519 991 b 554 933 529 944 540 946 b 560 888 546 918 544 906 b 552 873 555 883 547 881 b 548 738 545 817 539 833 b 589 673 561 669 528 648 b 629 687 608 680 626 686 b 685 550 631 710 685 548 m 406 608 b 401 651 404 622 403 638 b 394 604 393 624 358 584 "},"a":{"ha":749,"x_min":0,"x_max":0,"o":"m 685 550 b 629 687 685 548 631 710 b 589 673 626 686 608 680 b 548 738 528 648 561 669 b 552 873 539 833 545 817 b 560 888 547 881 555 883 b 554 933 544 906 546 918 b 523 977 540 946 529 944 b 499 993 519 991 506 985 b 467 1006 492 1000 477 1003 b 455 1005 463 1010 459 1001 b 440 1004 449 1009 449 1003 b 384 975 424 1006 402 970 b 366 947 369 973 384 951 b 358 936 357 942 356 941 b 350 919 361 928 349 925 b 179 530 326 835 229 648 b 113 514 160 521 117 512 b 104 516 107 512 106 512 b 86 510 103 523 91 512 l 76 519 b 62 513 72 516 67 508 b 56 512 58 515 57 515 b 43 505 54 507 44 509 b 37 501 42 503 39 501 b 29 495 31 502 34 495 b -12 438 11 488 -9 450 b -15 416 -21 432 -8 425 b -16 406 -19 411 -19 410 b -17 390 -8 403 -21 393 b -12 370 -16 375 -12 379 b -9 360 -14 362 -7 367 b -6 345 -10 353 -5 354 b 1 333 -7 334 0 340 b 4 328 1 330 2 328 b 12 319 9 328 6 319 b 21 310 19 318 14 307 b 33 298 27 312 29 299 b 58 305 35 297 46 300 b 81 312 70 309 81 312 b -6 84 51 240 1 129 b 49 -17 -20 1 -48 1 b 138 26 146 -35 113 -52 b 291 408 143 72 222 258 b 421 451 314 416 415 450 b 475 85 431 342 475 174 b 491 50 489 78 497 67 b 564 7 520 45 535 6 b 571 9 567 5 568 5 b 592 4 577 18 585 9 b 607 13 596 8 601 18 b 615 15 611 11 612 11 b 637 30 624 26 633 8 b 675 68 640 57 659 59 b 673 99 674 75 666 93 b 672 106 675 101 675 103 b 678 134 666 112 677 127 b 675 142 682 136 681 139 b 672 163 666 144 671 156 b 630 174 661 166 641 171 b 569 505 604 229 574 438 b 685 550 592 513 689 549 m 394 604 b 401 651 358 584 393 624 b 406 608 403 638 404 622 "},"À":{"ha":749,"x_min":0,"x_max":0,"o":"m 685 550 b 569 505 689 549 592 513 b 630 174 574 438 604 229 b 672 163 641 171 661 166 b 675 142 671 156 666 144 b 678 134 681 139 682 136 b 672 106 677 127 666 112 b 673 99 675 103 675 101 b 675 68 666 93 674 75 b 637 30 659 59 640 57 b 615 15 633 8 624 26 b 607 13 612 11 611 11 b 592 4 601 18 596 8 b 571 9 585 9 577 18 b 564 7 568 5 567 5 b 491 50 535 6 520 45 b 475 85 497 67 489 78 b 421 451 475 174 431 342 b 291 408 415 450 314 416 b 138 26 222 258 143 72 b 49 -17 113 -52 146 -35 b -6 84 -48 1 -20 1 b 81 312 1 129 51 240 b 58 305 81 312 70 309 b 33 298 46 300 35 297 b 21 310 29 299 27 312 b 12 319 14 307 19 318 b 4 328 6 319 9 328 b 1 333 2 328 1 330 b -6 345 0 340 -7 334 b -9 360 -5 354 -10 353 b -12 370 -7 367 -14 362 b -17 390 -12 379 -16 375 b -16 406 -21 393 -8 403 b -15 416 -19 410 -19 411 b -12 438 -8 425 -21 432 b 29 495 -9 450 11 488 b 37 501 34 495 31 502 b 43 505 39 501 42 503 b 56 512 44 509 54 507 b 62 513 57 515 58 515 b 76 519 67 508 72 516 l 86 510 b 104 516 91 512 103 523 b 113 514 106 512 107 512 b 179 530 117 512 160 521 b 350 919 229 648 326 835 b 358 936 349 925 361 928 b 366 947 356 941 357 942 b 384 975 384 951 369 973 b 440 1004 402 970 424 1006 b 455 1005 449 1003 449 1009 b 467 1006 459 1001 463 1010 b 499 993 477 1003 492 1000 b 523 977 506 985 519 991 b 554 933 529 944 540 946 b 560 888 546 918 544 906 b 552 873 555 883 547 881 b 548 738 545 817 539 833 b 589 673 561 669 528 648 b 629 687 608 680 626 686 b 685 550 631 710 685 548 m 406 608 b 401 651 404 622 403 638 b 394 604 393 624 358 584 "},"Á":{"ha":749,"x_min":0,"x_max":0,"o":"m 685 550 b 629 687 685 548 631 710 b 589 673 626 686 608 680 b 548 738 528 648 561 669 b 552 873 539 833 545 817 b 560 888 547 881 555 883 b 554 933 544 906 546 918 b 523 977 540 946 529 944 b 499 993 519 991 506 985 b 467 1006 492 1000 477 1003 b 455 1005 463 1010 459 1001 b 440 1004 449 1009 449 1003 b 384 975 424 1006 402 970 b 366 947 369 973 384 951 b 358 936 357 942 356 941 b 350 919 361 928 349 925 b 179 530 326 835 229 648 b 113 514 160 521 117 512 b 104 516 107 512 106 512 b 86 510 103 523 91 512 l 76 519 b 62 513 72 516 67 508 b 56 512 58 515 57 515 b 43 505 54 507 44 509 b 37 501 42 503 39 501 b 29 495 31 502 34 495 b -12 438 11 488 -9 450 b -15 416 -21 432 -8 425 b -16 406 -19 411 -19 410 b -17 390 -8 403 -21 393 b -12 370 -16 375 -12 379 b -9 360 -14 362 -7 367 b -6 345 -10 353 -5 354 b 1 333 -7 334 0 340 b 4 328 1 330 2 328 b 12 319 9 328 6 319 b 21 310 19 318 14 307 b 33 298 27 312 29 299 b 58 305 35 297 46 300 b 81 312 70 309 81 312 b -6 84 51 240 1 129 b 49 -17 -20 1 -48 1 b 138 26 146 -35 113 -52 b 291 408 143 72 222 258 b 421 451 314 416 415 450 b 475 85 431 342 475 174 b 491 50 489 78 497 67 b 564 7 520 45 535 6 b 571 9 567 5 568 5 b 592 4 577 18 585 9 b 607 13 596 8 601 18 b 615 15 611 11 612 11 b 637 30 624 26 633 8 b 675 68 640 57 659 59 b 673 99 674 75 666 93 b 672 106 675 101 675 103 b 678 134 666 112 677 127 b 675 142 682 136 681 139 b 672 163 666 144 671 156 b 630 174 661 166 641 171 b 569 505 604 229 574 438 b 685 550 592 513 689 549 m 394 604 b 401 651 358 584 393 624 b 406 608 403 638 404 622 "},"Â":{"ha":749,"x_min":0,"x_max":0,"o":"m 685 550 b 569 505 689 549 592 513 b 630 174 574 438 604 229 b 672 163 641 171 661 166 b 675 142 671 156 666 144 b 678 134 681 139 682 136 b 672 106 677 127 666 112 b 673 99 675 103 675 101 b 675 68 666 93 674 75 b 637 30 659 59 640 57 b 615 15 633 8 624 26 b 607 13 612 11 611 11 b 592 4 601 18 596 8 b 571 9 585 9 577 18 b 564 7 568 5 567 5 b 491 50 535 6 520 45 b 475 85 497 67 489 78 b 421 451 475 174 431 342 b 291 408 415 450 314 416 b 138 26 222 258 143 72 b 49 -17 113 -52 146 -35 b -6 84 -48 1 -20 1 b 81 312 1 129 51 240 b 58 305 81 312 70 309 b 33 298 46 300 35 297 b 21 310 29 299 27 312 b 12 319 14 307 19 318 b 4 328 6 319 9 328 b 1 333 2 328 1 330 b -6 345 0 340 -7 334 b -9 360 -5 354 -10 353 b -12 370 -7 367 -14 362 b -17 390 -12 379 -16 375 b -16 406 -21 393 -8 403 b -15 416 -19 410 -19 411 b -12 438 -8 425 -21 432 b 29 495 -9 450 11 488 b 37 501 34 495 31 502 b 43 505 39 501 42 503 b 56 512 44 509 54 507 b 62 513 57 515 58 515 b 76 519 67 508 72 516 l 86 510 b 104 516 91 512 103 523 b 113 514 106 512 107 512 b 179 530 117 512 160 521 b 350 919 229 648 326 835 b 358 936 349 925 361 928 b 366 947 356 941 357 942 b 384 975 384 951 369 973 b 440 1004 402 970 424 1006 b 455 1005 449 1003 449 1009 b 467 1006 459 1001 463 1010 b 499 993 477 1003 492 1000 b 523 977 506 985 519 991 b 554 933 529 944 540 946 b 560 888 546 918 544 906 b 552 873 555 883 547 881 b 548 738 545 817 539 833 b 589 673 561 669 528 648 b 629 687 608 680 626 686 b 685 550 631 710 685 548 m 406 608 b 401 651 404 622 403 638 b 394 604 393 624 358 584 "},"Ã":{"ha":749,"x_min":0,"x_max":0,"o":"m 685 550 b 629 687 685 548 631 710 b 589 673 626 686 608 680 b 548 738 528 648 561 669 b 552 873 539 833 545 817 b 560 888 547 881 555 883 b 554 933 544 906 546 918 b 523 977 540 946 529 944 b 499 993 519 991 506 985 b 467 1006 492 1000 477 1003 b 455 1005 463 1010 459 1001 b 440 1004 449 1009 449 1003 b 384 975 424 1006 402 970 b 366 947 369 973 384 951 b 358 936 357 942 356 941 b 350 919 361 928 349 925 b 179 530 326 835 229 648 b 113 514 160 521 117 512 b 104 516 107 512 106 512 b 86 510 103 523 91 512 l 76 519 b 62 513 72 516 67 508 b 56 512 58 515 57 515 b 43 505 54 507 44 509 b 37 501 42 503 39 501 b 29 495 31 502 34 495 b -12 438 11 488 -9 450 b -15 416 -21 432 -8 425 b -16 406 -19 411 -19 410 b -17 390 -8 403 -21 393 b -12 370 -16 375 -12 379 b -9 360 -14 362 -7 367 b -6 345 -10 353 -5 354 b 1 333 -7 334 0 340 b 4 328 1 330 2 328 b 12 319 9 328 6 319 b 21 310 19 318 14 307 b 33 298 27 312 29 299 b 58 305 35 297 46 300 b 81 312 70 309 81 312 b -6 84 51 240 1 129 b 49 -17 -20 1 -48 1 b 138 26 146 -35 113 -52 b 291 408 143 72 222 258 b 421 451 314 416 415 450 b 475 85 431 342 475 174 b 491 50 489 78 497 67 b 564 7 520 45 535 6 b 571 9 567 5 568 5 b 592 4 577 18 585 9 b 607 13 596 8 601 18 b 615 15 611 11 612 11 b 637 30 624 26 633 8 b 675 68 640 57 659 59 b 673 99 674 75 666 93 b 672 106 675 101 675 103 b 678 134 666 112 677 127 b 675 142 682 136 681 139 b 672 163 666 144 671 156 b 630 174 661 166 641 171 b 569 505 604 229 574 438 b 685 550 592 513 689 549 m 394 604 b 401 651 358 584 393 624 b 406 608 403 638 404 622 "},"Ä":{"ha":749,"x_min":0,"x_max":0,"o":"m 685 550 b 569 505 689 549 592 513 b 630 174 574 438 604 229 b 672 163 641 171 661 166 b 675 142 671 156 666 144 b 678 134 681 139 682 136 b 672 106 677 127 666 112 b 673 99 675 103 675 101 b 675 68 666 93 674 75 b 637 30 659 59 640 57 b 615 15 633 8 624 26 b 607 13 612 11 611 11 b 592 4 601 18 596 8 b 571 9 585 9 577 18 b 564 7 568 5 567 5 b 491 50 535 6 520 45 b 475 85 497 67 489 78 b 421 451 475 174 431 342 b 291 408 415 450 314 416 b 138 26 222 258 143 72 b 49 -17 113 -52 146 -35 b -6 84 -48 1 -20 1 b 81 312 1 129 51 240 b 58 305 81 312 70 309 b 33 298 46 300 35 297 b 21 310 29 299 27 312 b 12 319 14 307 19 318 b 4 328 6 319 9 328 b 1 333 2 328 1 330 b -6 345 0 340 -7 334 b -9 360 -5 354 -10 353 b -12 370 -7 367 -14 362 b -17 390 -12 379 -16 375 b -16 406 -21 393 -8 403 b -15 416 -19 410 -19 411 b -12 438 -8 425 -21 432 b 29 495 -9 450 11 488 b 37 501 34 495 31 502 b 43 505 39 501 42 503 b 56 512 44 509 54 507 b 62 513 57 515 58 515 b 76 519 67 508 72 516 l 86 510 b 104 516 91 512 103 523 b 113 514 106 512 107 512 b 179 530 117 512 160 521 b 350 919 229 648 326 835 b 358 936 349 925 361 928 b 366 947 356 941 357 942 b 384 975 384 951 369 973 b 440 1004 402 970 424 1006 b 455 1005 449 1003 449 1009 b 467 1006 459 1001 463 1010 b 499 993 477 1003 492 1000 b 523 977 506 985 519 991 b 554 933 529 944 540 946 b 560 888 546 918 544 906 b 552 873 555 883 547 881 b 548 738 545 817 539 833 b 589 673 561 669 528 648 b 629 687 608 680 626 686 b 685 550 631 710 685 548 m 406 608 b 401 651 404 622 403 638 b 394 604 393 624 358 584 "},"Å":{"ha":749,"x_min":0,"x_max":0,"o":"m 685 550 b 629 687 685 548 631 710 b 589 673 626 686 608 680 b 548 738 528 648 561 669 b 552 873 539 833 545 817 b 560 888 547 881 555 883 b 554 933 544 906 546 918 b 523 977 540 946 529 944 b 499 993 519 991 506 985 b 467 1006 492 1000 477 1003 b 455 1005 463 1010 459 1001 b 440 1004 449 1009 449 1003 b 384 975 424 1006 402 970 b 366 947 369 973 384 951 b 358 936 357 942 356 941 b 350 919 361 928 349 925 b 179 530 326 835 229 648 b 113 514 160 521 117 512 b 104 516 107 512 106 512 b 86 510 103 523 91 512 l 76 519 b 62 513 72 516 67 508 b 56 512 58 515 57 515 b 43 505 54 507 44 509 b 37 501 42 503 39 501 b 29 495 31 502 34 495 b -12 438 11 488 -9 450 b -15 416 -21 432 -8 425 b -16 406 -19 411 -19 410 b -17 390 -8 403 -21 393 b -12 370 -16 375 -12 379 b -9 360 -14 362 -7 367 b -6 345 -10 353 -5 354 b 1 333 -7 334 0 340 b 4 328 1 330 2 328 b 12 319 9 328 6 319 b 21 310 19 318 14 307 b 33 298 27 312 29 299 b 58 305 35 297 46 300 b 81 312 70 309 81 312 b -6 84 51 240 1 129 b 49 -17 -20 1 -48 1 b 138 26 146 -35 113 -52 b 291 408 143 72 222 258 b 421 451 314 416 415 450 b 475 85 431 342 475 174 b 491 50 489 78 497 67 b 564 7 520 45 535 6 b 571 9 567 5 568 5 b 592 4 577 18 585 9 b 607 13 596 8 601 18 b 615 15 611 11 612 11 b 637 30 624 26 633 8 b 675 68 640 57 659 59 b 673 99 674 75 666 93 b 672 106 675 101 675 103 b 678 134 666 112 677 127 b 675 142 682 136 681 139 b 672 163 666 144 671 156 b 630 174 661 166 641 171 b 569 505 604 229 574 438 b 685 550 592 513 689 549 m 394 604 b 401 651 358 584 393 624 b 406 608 403 638 404 622 "},"à":{"ha":749,"x_min":0,"x_max":0,"o":"m 685 550 b 569 505 689 549 592 513 b 630 174 574 438 604 229 b 672 163 641 171 661 166 b 675 142 671 156 666 144 b 678 134 681 139 682 136 b 672 106 677 127 666 112 b 673 99 675 103 675 101 b 675 68 666 93 674 75 b 637 30 659 59 640 57 b 615 15 633 8 624 26 b 607 13 612 11 611 11 b 592 4 601 18 596 8 b 571 9 585 9 577 18 b 564 7 568 5 567 5 b 491 50 535 6 520 45 b 475 85 497 67 489 78 b 421 451 475 174 431 342 b 291 408 415 450 314 416 b 138 26 222 258 143 72 b 49 -17 113 -52 146 -35 b -6 84 -48 1 -20 1 b 81 312 1 129 51 240 b 58 305 81 312 70 309 b 33 298 46 300 35 297 b 21 310 29 299 27 312 b 12 319 14 307 19 318 b 4 328 6 319 9 328 b 1 333 2 328 1 330 b -6 345 0 340 -7 334 b -9 360 -5 354 -10 353 b -12 370 -7 367 -14 362 b -17 390 -12 379 -16 375 b -16 406 -21 393 -8 403 b -15 416 -19 410 -19 411 b -12 438 -8 425 -21 432 b 29 495 -9 450 11 488 b 37 501 34 495 31 502 b 43 505 39 501 42 503 b 56 512 44 509 54 507 b 62 513 57 515 58 515 b 76 519 67 508 72 516 l 86 510 b 104 516 91 512 103 523 b 113 514 106 512 107 512 b 179 530 117 512 160 521 b 350 919 229 648 326 835 b 358 936 349 925 361 928 b 366 947 356 941 357 942 b 384 975 384 951 369 973 b 440 1004 402 970 424 1006 b 455 1005 449 1003 449 1009 b 467 1006 459 1001 463 1010 b 499 993 477 1003 492 1000 b 523 977 506 985 519 991 b 554 933 529 944 540 946 b 560 888 546 918 544 906 b 552 873 555 883 547 881 b 548 738 545 817 539 833 b 589 673 561 669 528 648 b 629 687 608 680 626 686 b 685 550 631 710 685 548 m 406 608 b 401 651 404 622 403 638 b 394 604 393 624 358 584 "},"á":{"ha":749,"x_min":0,"x_max":0,"o":"m 685 550 b 629 687 685 548 631 710 b 589 673 626 686 608 680 b 548 738 528 648 561 669 b 552 873 539 833 545 817 b 560 888 547 881 555 883 b 554 933 544 906 546 918 b 523 977 540 946 529 944 b 499 993 519 991 506 985 b 467 1006 492 1000 477 1003 b 455 1005 463 1010 459 1001 b 440 1004 449 1009 449 1003 b 384 975 424 1006 402 970 b 366 947 369 973 384 951 b 358 936 357 942 356 941 b 350 919 361 928 349 925 b 179 530 326 835 229 648 b 113 514 160 521 117 512 b 104 516 107 512 106 512 b 86 510 103 523 91 512 l 76 519 b 62 513 72 516 67 508 b 56 512 58 515 57 515 b 43 505 54 507 44 509 b 37 501 42 503 39 501 b 29 495 31 502 34 495 b -12 438 11 488 -9 450 b -15 416 -21 432 -8 425 b -16 406 -19 411 -19 410 b -17 390 -8 403 -21 393 b -12 370 -16 375 -12 379 b -9 360 -14 362 -7 367 b -6 345 -10 353 -5 354 b 1 333 -7 334 0 340 b 4 328 1 330 2 328 b 12 319 9 328 6 319 b 21 310 19 318 14 307 b 33 298 27 312 29 299 b 58 305 35 297 46 300 b 81 312 70 309 81 312 b -6 84 51 240 1 129 b 49 -17 -20 1 -48 1 b 138 26 146 -35 113 -52 b 291 408 143 72 222 258 b 421 451 314 416 415 450 b 475 85 431 342 475 174 b 491 50 489 78 497 67 b 564 7 520 45 535 6 b 571 9 567 5 568 5 b 592 4 577 18 585 9 b 607 13 596 8 601 18 b 615 15 611 11 612 11 b 637 30 624 26 633 8 b 675 68 640 57 659 59 b 673 99 674 75 666 93 b 672 106 675 101 675 103 b 678 134 666 112 677 127 b 675 142 682 136 681 139 b 672 163 666 144 671 156 b 630 174 661 166 641 171 b 569 505 604 229 574 438 b 685 550 592 513 689 549 m 394 604 b 401 651 358 584 393 624 b 406 608 403 638 404 622 "},"â":{"ha":749,"x_min":0,"x_max":0,"o":"m 685 550 b 569 505 689 549 592 513 b 630 174 574 438 604 229 b 672 163 641 171 661 166 b 675 142 671 156 666 144 b 678 134 681 139 682 136 b 672 106 677 127 666 112 b 673 99 675 103 675 101 b 675 68 666 93 674 75 b 637 30 659 59 640 57 b 615 15 633 8 624 26 b 607 13 612 11 611 11 b 592 4 601 18 596 8 b 571 9 585 9 577 18 b 564 7 568 5 567 5 b 491 50 535 6 520 45 b 475 85 497 67 489 78 b 421 451 475 174 431 342 b 291 408 415 450 314 416 b 138 26 222 258 143 72 b 49 -17 113 -52 146 -35 b -6 84 -48 1 -20 1 b 81 312 1 129 51 240 b 58 305 81 312 70 309 b 33 298 46 300 35 297 b 21 310 29 299 27 312 b 12 319 14 307 19 318 b 4 328 6 319 9 328 b 1 333 2 328 1 330 b -6 345 0 340 -7 334 b -9 360 -5 354 -10 353 b -12 370 -7 367 -14 362 b -17 390 -12 379 -16 375 b -16 406 -21 393 -8 403 b -15 416 -19 410 -19 411 b -12 438 -8 425 -21 432 b 29 495 -9 450 11 488 b 37 501 34 495 31 502 b 43 505 39 501 42 503 b 56 512 44 509 54 507 b 62 513 57 515 58 515 b 76 519 67 508 72 516 l 86 510 b 104 516 91 512 103 523 b 113 514 106 512 107 512 b 179 530 117 512 160 521 b 350 919 229 648 326 835 b 358 936 349 925 361 928 b 366 947 356 941 357 942 b 384 975 384 951 369 973 b 440 1004 402 970 424 1006 b 455 1005 449 1003 449 1009 b 467 1006 459 1001 463 1010 b 499 993 477 1003 492 1000 b 523 977 506 985 519 991 b 554 933 529 944 540 946 b 560 888 546 918 544 906 b 552 873 555 883 547 881 b 548 738 545 817 539 833 b 589 673 561 669 528 648 b 629 687 608 680 626 686 b 685 550 631 710 685 548 m 406 608 b 401 651 404 622 403 638 b 394 604 393 624 358 584 "},"ã":{"ha":749,"x_min":0,"x_max":0,"o":"m 685 550 b 629 687 685 548 631 710 b 589 673 626 686 608 680 b 548 738 528 648 561 669 b 552 873 539 833 545 817 b 560 888 547 881 555 883 b 554 933 544 906 546 918 b 523 977 540 946 529 944 b 499 993 519 991 506 985 b 467 1006 492 1000 477 1003 b 455 1005 463 1010 459 1001 b 440 1004 449 1009 449 1003 b 384 975 424 1006 402 970 b 366 947 369 973 384 951 b 358 936 357 942 356 941 b 350 919 361 928 349 925 b 179 530 326 835 229 648 b 113 514 160 521 117 512 b 104 516 107 512 106 512 b 86 510 103 523 91 512 l 76 519 b 62 513 72 516 67 508 b 56 512 58 515 57 515 b 43 505 54 507 44 509 b 37 501 42 503 39 501 b 29 495 31 502 34 495 b -12 438 11 488 -9 450 b -15 416 -21 432 -8 425 b -16 406 -19 411 -19 410 b -17 390 -8 403 -21 393 b -12 370 -16 375 -12 379 b -9 360 -14 362 -7 367 b -6 345 -10 353 -5 354 b 1 333 -7 334 0 340 b 4 328 1 330 2 328 b 12 319 9 328 6 319 b 21 310 19 318 14 307 b 33 298 27 312 29 299 b 58 305 35 297 46 300 b 81 312 70 309 81 312 b -6 84 51 240 1 129 b 49 -17 -20 1 -48 1 b 138 26 146 -35 113 -52 b 291 408 143 72 222 258 b 421 451 314 416 415 450 b 475 85 431 342 475 174 b 491 50 489 78 497 67 b 564 7 520 45 535 6 b 571 9 567 5 568 5 b 592 4 577 18 585 9 b 607 13 596 8 601 18 b 615 15 611 11 612 11 b 637 30 624 26 633 8 b 675 68 640 57 659 59 b 673 99 674 75 666 93 b 672 106 675 101 675 103 b 678 134 666 112 677 127 b 675 142 682 136 681 139 b 672 163 666 144 671 156 b 630 174 661 166 641 171 b 569 505 604 229 574 438 b 685 550 592 513 689 549 m 394 604 b 401 651 358 584 393 624 b 406 608 403 638 404 622 "},"ä":{"ha":749,"x_min":0,"x_max":0,"o":"m 685 550 b 569 505 689 549 592 513 b 630 174 574 438 604 229 b 672 163 641 171 661 166 b 675 142 671 156 666 144 b 678 134 681 139 682 136 b 672 106 677 127 666 112 b 673 99 675 103 675 101 b 675 68 666 93 674 75 b 637 30 659 59 640 57 b 615 15 633 8 624 26 b 607 13 612 11 611 11 b 592 4 601 18 596 8 b 571 9 585 9 577 18 b 564 7 568 5 567 5 b 491 50 535 6 520 45 b 475 85 497 67 489 78 b 421 451 475 174 431 342 b 291 408 415 450 314 416 b 138 26 222 258 143 72 b 49 -17 113 -52 146 -35 b -6 84 -48 1 -20 1 b 81 312 1 129 51 240 b 58 305 81 312 70 309 b 33 298 46 300 35 297 b 21 310 29 299 27 312 b 12 319 14 307 19 318 b 4 328 6 319 9 328 b 1 333 2 328 1 330 b -6 345 0 340 -7 334 b -9 360 -5 354 -10 353 b -12 370 -7 367 -14 362 b -17 390 -12 379 -16 375 b -16 406 -21 393 -8 403 b -15 416 -19 410 -19 411 b -12 438 -8 425 -21 432 b 29 495 -9 450 11 488 b 37 501 34 495 31 502 b 43 505 39 501 42 503 b 56 512 44 509 54 507 b 62 513 57 515 58 515 b 76 519 67 508 72 516 l 86 510 b 104 516 91 512 103 523 b 113 514 106 512 107 512 b 179 530 117 512 160 521 b 350 919 229 648 326 835 b 358 936 349 925 361 928 b 366 947 356 941 357 942 b 384 975 384 951 369 973 b 440 1004 402 970 424 1006 b 455 1005 449 1003 449 1009 b 467 1006 459 1001 463 1010 b 499 993 477 1003 492 1000 b 523 977 506 985 519 991 b 554 933 529 944 540 946 b 560 888 546 918 544 906 b 552 873 555 883 547 881 b 548 738 545 817 539 833 b 589 673 561 669 528 648 b 629 687 608 680 626 686 b 685 550 631 710 685 548 m 406 608 b 401 651 404 622 403 638 b 394 604 393 624 358 584 "},"å":{"ha":749,"x_min":0,"x_max":0,"o":"m 685 550 b 629 687 685 548 631 710 b 589 673 626 686 608 680 b 548 738 528 648 561 669 b 552 873 539 833 545 817 b 560 888 547 881 555 883 b 554 933 544 906 546 918 b 523 977 540 946 529 944 b 499 993 519 991 506 985 b 467 1006 492 1000 477 1003 b 455 1005 463 1010 459 1001 b 440 1004 449 1009 449 1003 b 384 975 424 1006 402 970 b 366 947 369 973 384 951 b 358 936 357 942 356 941 b 350 919 361 928 349 925 b 179 530 326 835 229 648 b 113 514 160 521 117 512 b 104 516 107 512 106 512 b 86 510 103 523 91 512 l 76 519 b 62 513 72 516 67 508 b 56 512 58 515 57 515 b 43 505 54 507 44 509 b 37 501 42 503 39 501 b 29 495 31 502 34 495 b -12 438 11 488 -9 450 b -15 416 -21 432 -8 425 b -16 406 -19 411 -19 410 b -17 390 -8 403 -21 393 b -12 370 -16 375 -12 379 b -9 360 -14 362 -7 367 b -6 345 -10 353 -5 354 b 1 333 -7 334 0 340 b 4 328 1 330 2 328 b 12 319 9 328 6 319 b 21 310 19 318 14 307 b 33 298 27 312 29 299 b 58 305 35 297 46 300 b 81 312 70 309 81 312 b -6 84 51 240 1 129 b 49 -17 -20 1 -48 1 b 138 26 146 -35 113 -52 b 291 408 143 72 222 258 b 421 451 314 416 415 450 b 475 85 431 342 475 174 b 491 50 489 78 497 67 b 564 7 520 45 535 6 b 571 9 567 5 568 5 b 592 4 577 18 585 9 b 607 13 596 8 601 18 b 615 15 611 11 612 11 b 637 30 624 26 633 8 b 675 68 640 57 659 59 b 673 99 674 75 666 93 b 672 106 675 101 675 103 b 678 134 666 112 677 127 b 675 142 682 136 681 139 b 672 163 666 144 671 156 b 630 174 661 166 641 171 b 569 505 604 229 574 438 b 685 550 592 513 689 549 m 394 604 b 401 651 358 584 393 624 b 406 608 403 638 404 622 "},"B":{"ha":639,"x_min":0,"x_max":0,"o":"m 412 566 b 611 344 544 581 673 470 b 241 145 550 239 372 188 b 183 91 185 123 167 125 b 158 59 176 84 151 74 b 148 46 159 50 157 47 b 107 23 137 42 121 19 b 87 23 95 26 99 9 b 44 42 67 41 62 -3 l 13 42 b 0 67 11 54 16 64 b -20 86 -17 71 -6 80 b -39 204 1 105 -35 178 b 7 225 -39 209 -31 213 l 36 235 b 36 347 35 266 71 344 b 18 358 16 352 16 352 b 10 377 21 369 3 363 b 14 426 12 395 -5 402 b 48 465 29 452 9 458 b 78 497 52 483 58 507 b 96 602 78 499 96 600 b 60 626 97 605 58 622 b 121 752 73 662 102 719 b 205 958 127 825 148 908 b 287 911 225 946 267 923 b 565 835 385 978 541 967 b 412 566 579 728 493 652 m 265 682 b 306 680 258 637 235 606 b 388 782 339 713 382 759 b 265 682 360 777 275 705 m 265 314 b 448 403 381 355 398 363 b 210 360 380 417 278 386 b 265 314 208 297 167 276 "},"b":{"ha":639,"x_min":0,"x_max":0,"o":"m 412 566 b 565 835 493 652 579 728 b 287 911 541 967 385 978 b 205 958 267 923 225 946 b 121 752 148 908 127 825 b 60 626 102 719 73 662 b 96 602 58 622 97 605 b 78 497 96 600 78 499 b 48 465 58 507 52 483 b 14 426 9 458 29 452 b 10 377 -5 402 12 395 b 18 358 3 363 21 369 b 36 347 16 352 16 352 b 36 235 71 344 35 266 l 7 225 b -39 204 -31 213 -39 209 b -20 86 -35 178 1 105 b 0 67 -6 80 -17 71 b 13 42 16 64 11 54 l 44 42 b 87 23 62 -3 67 41 b 107 23 99 9 95 26 b 148 46 121 19 137 42 b 158 59 157 47 159 50 b 183 91 151 74 176 84 b 241 145 167 125 185 123 b 611 344 372 188 550 239 b 412 566 673 470 544 581 m 265 682 b 388 782 275 705 360 777 b 306 680 382 759 339 713 b 265 682 235 606 258 637 m 265 314 b 210 360 167 276 208 297 b 448 403 278 386 380 417 b 265 314 398 363 381 355 "},"C":{"ha":632,"x_min":0,"x_max":0,"o":"m 511 423 b 614 317 530 406 595 336 b 138 20 502 210 319 -12 b 381 947 -248 201 144 791 b 396 953 384 955 394 947 b 429 956 402 957 418 960 b 492 939 448 952 483 951 b 496 936 492 937 494 936 b 508 927 503 936 502 927 b 518 915 515 927 509 915 b 550 876 528 904 533 887 b 469 754 518 831 503 787 b 369 732 420 785 423 782 b 234 194 266 682 -20 115 b 511 423 269 194 472 388 "},"c":{"ha":632,"x_min":0,"x_max":0,"o":"m 511 423 b 234 194 472 388 269 194 b 369 732 -20 115 266 682 b 469 754 423 782 420 785 b 550 876 503 787 518 831 b 518 915 533 887 528 904 b 508 927 509 915 515 927 b 496 936 502 927 503 936 b 492 939 494 936 492 937 b 429 956 483 951 448 952 b 396 953 418 960 402 957 b 381 947 394 947 384 955 b 138 20 144 791 -248 201 b 614 317 319 -12 502 210 b 511 423 595 336 530 406 "},"Ç":{"ha":632,"x_min":0,"x_max":0,"o":"m 511 423 b 614 317 530 406 595 336 b 138 20 502 210 319 -12 b 381 947 -248 201 144 791 b 396 953 384 955 394 947 b 429 956 402 957 418 960 b 492 939 448 952 483 951 b 496 936 492 937 494 936 b 508 927 503 936 502 927 b 518 915 515 927 509 915 b 550 876 528 904 533 887 b 469 754 518 831 503 787 b 369 732 420 785 423 782 b 234 194 266 682 -20 115 b 511 423 269 194 472 388 "},"ç":{"ha":632,"x_min":0,"x_max":0,"o":"m 511 423 b 234 194 472 388 269 194 b 369 732 -20 115 266 682 b 469 754 423 782 420 785 b 550 876 503 787 518 831 b 518 915 533 887 528 904 b 508 927 509 915 515 927 b 496 936 502 927 503 936 b 492 939 494 936 492 937 b 429 956 483 951 448 952 b 396 953 418 960 402 957 b 381 947 394 947 384 955 b 138 20 144 791 -248 201 b 614 317 319 -12 502 210 b 511 423 595 336 530 406 "},"D":{"ha":621,"x_min":0,"x_max":0,"o":"m 589 823 b 189 100 796 529 409 246 b 174 61 183 89 187 59 b 145 58 160 61 165 48 b 135 58 139 61 138 61 b 103 54 125 48 112 35 b 94 42 101 51 96 45 l 87 48 b 69 47 77 58 76 48 b 41 80 65 47 46 73 b -6 101 18 84 -4 85 b -14 119 -5 111 -22 108 b -20 134 -8 128 -14 129 b -10 146 -17 137 -12 143 b 13 187 -32 164 0 173 b 114 909 43 375 56 731 b 144 902 122 907 137 904 b 589 823 251 968 509 921 m 209 298 b 348 769 359 400 672 708 b 238 758 317 769 250 779 b 176 277 239 797 190 411 b 209 298 176 275 183 280 "},"d":{"ha":621,"x_min":0,"x_max":0,"o":"m 589 823 b 144 902 509 921 251 968 b 114 909 137 904 122 907 b 13 187 56 731 43 375 b -10 146 0 173 -32 164 b -20 134 -12 143 -17 137 b -14 119 -14 129 -8 128 b -6 101 -22 108 -5 111 b 41 80 -4 85 18 84 b 69 47 46 73 65 47 b 87 48 76 48 77 58 l 94 42 b 103 54 96 45 101 51 b 135 58 112 35 125 48 b 145 58 138 61 139 61 b 174 61 165 48 160 61 b 189 100 187 59 183 89 b 589 823 409 246 796 529 m 209 298 b 176 277 183 280 176 275 b 238 758 190 411 239 797 b 348 769 250 779 317 769 b 209 298 672 708 359 400 "},"E":{"ha":726,"x_min":0,"x_max":0,"o":"m 620 266 b 668 131 620 267 667 131 b 307 42 614 91 395 36 b 162 429 29 89 248 478 b 133 424 136 416 144 419 b 123 429 127 424 130 429 b 109 434 115 429 119 433 b 97 473 100 436 101 435 b 70 547 99 499 78 529 b 84 570 82 552 82 556 b 176 604 84 601 155 582 b 221 619 207 626 200 597 b 249 724 224 627 246 716 b 221 729 253 737 254 737 b 136 691 186 727 163 695 b 72 787 101 700 107 748 b 71 837 45 823 67 814 b 180 892 84 844 159 878 b 198 883 188 892 188 876 b 303 898 201 887 274 895 b 313 934 305 906 311 931 b 436 909 319 935 413 914 b 614 912 485 913 557 912 b 418 755 621 694 636 783 b 374 599 415 752 374 607 b 453 591 386 597 438 596 b 594 426 634 560 618 611 b 359 445 626 412 363 448 b 341 439 344 445 343 444 b 326 207 339 410 303 233 b 620 266 398 188 543 244 "},"e":{"ha":726,"x_min":0,"x_max":0,"o":"m 620 266 b 326 207 543 244 398 188 b 341 439 303 233 339 410 b 359 445 343 444 344 445 b 594 426 363 448 626 412 b 453 591 618 611 634 560 b 374 599 438 596 386 597 b 418 755 374 607 415 752 b 614 912 636 783 621 694 b 436 909 557 912 485 913 b 313 934 413 914 319 935 b 303 898 311 931 305 906 b 198 883 274 895 201 887 b 180 892 188 876 188 892 b 71 837 159 878 84 844 b 72 787 67 814 45 823 b 136 691 107 748 101 700 b 221 729 163 695 186 727 b 249 724 254 737 253 737 b 221 619 246 716 224 627 b 176 604 200 597 207 626 b 84 570 155 582 84 601 b 70 547 82 556 82 552 b 97 473 78 529 99 499 b 109 434 101 435 100 436 b 123 429 119 433 115 429 b 133 424 130 429 127 424 b 162 429 144 419 136 416 b 307 42 248 478 29 89 b 668 131 395 36 614 91 b 620 266 667 131 620 267 "},"È":{"ha":726,"x_min":0,"x_max":0,"o":"m 620 266 b 668 131 620 267 667 131 b 307 42 614 91 395 36 b 162 429 29 89 248 478 b 133 424 136 416 144 419 b 123 429 127 424 130 429 b 109 434 115 429 119 433 b 97 473 100 436 101 435 b 70 547 99 499 78 529 b 84 570 82 552 82 556 b 176 604 84 601 155 582 b 221 619 207 626 200 597 b 249 724 224 627 246 716 b 221 729 253 737 254 737 b 136 691 186 727 163 695 b 72 787 101 700 107 748 b 71 837 45 823 67 814 b 180 892 84 844 159 878 b 198 883 188 892 188 876 b 303 898 201 887 274 895 b 313 934 305 906 311 931 b 436 909 319 935 413 914 b 614 912 485 913 557 912 b 418 755 621 694 636 783 b 374 599 415 752 374 607 b 453 591 386 597 438 596 b 594 426 634 560 618 611 b 359 445 626 412 363 448 b 341 439 344 445 343 444 b 326 207 339 410 303 233 b 620 266 398 188 543 244 "},"É":{"ha":726,"x_min":0,"x_max":0,"o":"m 620 266 b 326 207 543 244 398 188 b 341 439 303 233 339 410 b 359 445 343 444 344 445 b 594 426 363 448 626 412 b 453 591 618 611 634 560 b 374 599 438 596 386 597 b 418 755 374 607 415 752 b 614 912 636 783 621 694 b 436 909 557 912 485 913 b 313 934 413 914 319 935 b 303 898 311 931 305 906 b 198 883 274 895 201 887 b 180 892 188 876 188 892 b 71 837 159 878 84 844 b 72 787 67 814 45 823 b 136 691 107 748 101 700 b 221 729 163 695 186 727 b 249 724 254 737 253 737 b 221 619 246 716 224 627 b 176 604 200 597 207 626 b 84 570 155 582 84 601 b 70 547 82 556 82 552 b 97 473 78 529 99 499 b 109 434 101 435 100 436 b 123 429 119 433 115 429 b 133 424 130 429 127 424 b 162 429 144 419 136 416 b 307 42 248 478 29 89 b 668 131 395 36 614 91 b 620 266 667 131 620 267 "},"Ê":{"ha":726,"x_min":0,"x_max":0,"o":"m 620 266 b 668 131 620 267 667 131 b 307 42 614 91 395 36 b 162 429 29 89 248 478 b 133 424 136 416 144 419 b 123 429 127 424 130 429 b 109 434 115 429 119 433 b 97 473 100 436 101 435 b 70 547 99 499 78 529 b 84 570 82 552 82 556 b 176 604 84 601 155 582 b 221 619 207 626 200 597 b 249 724 224 627 246 716 b 221 729 253 737 254 737 b 136 691 186 727 163 695 b 72 787 101 700 107 748 b 71 837 45 823 67 814 b 180 892 84 844 159 878 b 198 883 188 892 188 876 b 303 898 201 887 274 895 b 313 934 305 906 311 931 b 436 909 319 935 413 914 b 614 912 485 913 557 912 b 418 755 621 694 636 783 b 374 599 415 752 374 607 b 453 591 386 597 438 596 b 594 426 634 560 618 611 b 359 445 626 412 363 448 b 341 439 344 445 343 444 b 326 207 339 410 303 233 b 620 266 398 188 543 244 "},"Ë":{"ha":726,"x_min":0,"x_max":0,"o":"m 620 266 b 326 207 543 244 398 188 b 341 439 303 233 339 410 b 359 445 343 444 344 445 b 594 426 363 448 626 412 b 453 591 618 611 634 560 b 374 599 438 596 386 597 b 418 755 374 607 415 752 b 614 912 636 783 621 694 b 436 909 557 912 485 913 b 313 934 413 914 319 935 b 303 898 311 931 305 906 b 198 883 274 895 201 887 b 180 892 188 876 188 892 b 71 837 159 878 84 844 b 72 787 67 814 45 823 b 136 691 107 748 101 700 b 221 729 163 695 186 727 b 249 724 254 737 253 737 b 221 619 246 716 224 627 b 176 604 200 597 207 626 b 84 570 155 582 84 601 b 70 547 82 556 82 552 b 97 473 78 529 99 499 b 109 434 101 435 100 436 b 123 429 119 433 115 429 b 133 424 130 429 127 424 b 162 429 144 419 136 416 b 307 42 248 478 29 89 b 668 131 395 36 614 91 b 620 266 667 131 620 267 "},"è":{"ha":726,"x_min":0,"x_max":0,"o":"m 620 266 b 668 131 620 267 667 131 b 307 42 614 91 395 36 b 162 429 29 89 248 478 b 133 424 136 416 144 419 b 123 429 127 424 130 429 b 109 434 115 429 119 433 b 97 473 100 436 101 435 b 70 547 99 499 78 529 b 84 570 82 552 82 556 b 176 604 84 601 155 582 b 221 619 207 626 200 597 b 249 724 224 627 246 716 b 221 729 253 737 254 737 b 136 691 186 727 163 695 b 72 787 101 700 107 748 b 71 837 45 823 67 814 b 180 892 84 844 159 878 b 198 883 188 892 188 876 b 303 898 201 887 274 895 b 313 934 305 906 311 931 b 436 909 319 935 413 914 b 614 912 485 913 557 912 b 418 755 621 694 636 783 b 374 599 415 752 374 607 b 453 591 386 597 438 596 b 594 426 634 560 618 611 b 359 445 626 412 363 448 b 341 439 344 445 343 444 b 326 207 339 410 303 233 b 620 266 398 188 543 244 "},"é":{"ha":726,"x_min":0,"x_max":0,"o":"m 620 266 b 326 207 543 244 398 188 b 341 439 303 233 339 410 b 359 445 343 444 344 445 b 594 426 363 448 626 412 b 453 591 618 611 634 560 b 374 599 438 596 386 597 b 418 755 374 607 415 752 b 614 912 636 783 621 694 b 436 909 557 912 485 913 b 313 934 413 914 319 935 b 303 898 311 931 305 906 b 198 883 274 895 201 887 b 180 892 188 876 188 892 b 71 837 159 878 84 844 b 72 787 67 814 45 823 b 136 691 107 748 101 700 b 221 729 163 695 186 727 b 249 724 254 737 253 737 b 221 619 246 716 224 627 b 176 604 200 597 207 626 b 84 570 155 582 84 601 b 70 547 82 556 82 552 b 97 473 78 529 99 499 b 109 434 101 435 100 436 b 123 429 119 433 115 429 b 133 424 130 429 127 424 b 162 429 144 419 136 416 b 307 42 248 478 29 89 b 668 131 395 36 614 91 b 620 266 667 131 620 267 "},"ê":{"ha":726,"x_min":0,"x_max":0,"o":"m 620 266 b 668 131 620 267 667 131 b 307 42 614 91 395 36 b 162 429 29 89 248 478 b 133 424 136 416 144 419 b 123 429 127 424 130 429 b 109 434 115 429 119 433 b 97 473 100 436 101 435 b 70 547 99 499 78 529 b 84 570 82 552 82 556 b 176 604 84 601 155 582 b 221 619 207 626 200 597 b 249 724 224 627 246 716 b 221 729 253 737 254 737 b 136 691 186 727 163 695 b 72 787 101 700 107 748 b 71 837 45 823 67 814 b 180 892 84 844 159 878 b 198 883 188 892 188 876 b 303 898 201 887 274 895 b 313 934 305 906 311 931 b 436 909 319 935 413 914 b 614 912 485 913 557 912 b 418 755 621 694 636 783 b 374 599 415 752 374 607 b 453 591 386 597 438 596 b 594 426 634 560 618 611 b 359 445 626 412 363 448 b 341 439 344 445 343 444 b 326 207 339 410 303 233 b 620 266 398 188 543 244 "},"ë":{"ha":726,"x_min":0,"x_max":0,"o":"m 620 266 b 326 207 543 244 398 188 b 341 439 303 233 339 410 b 359 445 343 444 344 445 b 594 426 363 448 626 412 b 453 591 618 611 634 560 b 374 599 438 596 386 597 b 418 755 374 607 415 752 b 614 912 636 783 621 694 b 436 909 557 912 485 913 b 313 934 413 914 319 935 b 303 898 311 931 305 906 b 198 883 274 895 201 887 b 180 892 188 876 188 892 b 71 837 159 878 84 844 b 72 787 67 814 45 823 b 136 691 107 748 101 700 b 221 729 163 695 186 727 b 249 724 254 737 253 737 b 221 619 246 716 224 627 b 176 604 200 597 207 626 b 84 570 155 582 84 601 b 70 547 82 556 82 552 b 97 473 78 529 99 499 b 109 434 101 435 100 436 b 123 429 119 433 115 429 b 133 424 130 429 127 424 b 162 429 144 419 136 416 b 307 42 248 478 29 89 b 668 131 395 36 614 91 b 620 266 667 131 620 267 "},"F":{"ha":596,"x_min":0,"x_max":0,"o":"m 651 991 b 679 847 655 1014 680 840 b 590 828 679 843 670 841 b 424 798 491 810 429 799 b 421 763 416 800 421 771 b 389 602 392 786 397 623 b 550 483 569 629 519 643 b 378 447 546 460 409 458 b 363 244 378 446 371 355 b 271 -12 325 -91 389 -7 b 196 31 204 2 191 -33 b 223 428 196 47 223 413 b 203 398 211 434 212 395 b 160 402 189 390 181 394 b 129 391 149 393 139 383 b 104 418 121 384 111 416 b 66 426 96 420 67 426 b 62 437 64 428 69 435 b 68 477 47 439 66 466 b 52 499 64 483 55 496 b 82 546 56 516 58 529 b 97 570 94 550 91 566 b 107 580 100 570 105 576 b 152 579 126 574 135 563 b 183 586 168 593 169 582 b 235 587 184 585 234 585 b 247 763 235 593 254 750 b 185 738 228 760 202 758 b 151 722 158 715 157 715 b 111 754 130 738 118 717 b 63 828 103 783 85 802 b 76 850 69 834 82 842 b 125 892 66 876 108 885 b 173 926 146 897 158 915 b 186 912 176 923 183 915 b 651 991 268 924 622 988 "},"f":{"ha":596,"x_min":0,"x_max":0,"o":"m 651 991 b 186 912 622 988 268 924 b 173 926 183 915 176 923 b 125 892 158 915 146 897 b 76 850 108 885 66 876 b 63 828 82 842 69 834 b 111 754 85 802 103 783 b 151 722 118 717 130 738 b 185 738 157 715 158 715 b 247 763 202 758 228 760 b 235 587 254 750 235 593 b 183 586 234 585 184 585 b 152 579 169 582 168 593 b 107 580 135 563 126 574 b 97 570 105 576 100 570 b 82 546 91 566 94 550 b 52 499 58 529 56 516 b 68 477 55 496 64 483 b 62 437 66 466 47 439 b 66 426 69 435 64 428 b 104 418 67 426 96 420 b 129 391 111 416 121 384 b 160 402 139 383 149 393 b 203 398 181 394 189 390 b 223 428 212 395 211 434 b 196 31 223 413 196 47 b 271 -12 191 -33 204 2 b 363 244 389 -7 325 -91 b 378 447 371 355 378 446 b 550 483 409 458 546 460 b 389 602 519 643 569 629 b 421 763 397 623 392 786 b 424 798 421 771 416 800 b 590 828 429 799 491 810 b 679 847 670 841 679 843 b 651 991 680 840 655 1014 "},"G":{"ha":849,"x_min":0,"x_max":0,"o":"m 832 575 b 660 388 875 364 876 450 b 214 21 597 197 426 -9 b 674 855 -327 164 241 1299 b 715 807 678 849 714 813 b 619 699 713 801 622 700 b 576 734 617 699 598 715 b 153 305 350 955 125 500 b 472 343 182 77 398 198 b 411 319 453 343 426 328 b 386 309 408 310 388 323 l 382 301 b 344 320 373 306 354 315 b 296 317 325 314 306 304 b 271 334 282 317 279 329 b 267 347 266 335 266 336 b 260 362 268 358 268 358 b 272 410 240 368 268 396 b 260 447 269 419 263 438 b 286 477 271 456 278 469 b 311 487 289 484 310 472 b 355 478 314 509 341 481 b 832 575 462 496 715 562 "},"g":{"ha":849,"x_min":0,"x_max":0,"o":"m 832 575 b 355 478 715 562 462 496 b 311 487 341 481 314 509 b 286 477 310 472 289 484 b 260 447 278 469 271 456 b 272 410 263 438 269 419 b 260 362 268 396 240 368 b 267 347 268 358 268 358 b 271 334 266 336 266 335 b 296 317 279 329 282 317 b 344 320 306 304 325 314 b 382 301 354 315 373 306 l 386 309 b 411 319 388 323 408 310 b 472 343 426 328 453 343 b 153 305 398 198 182 77 b 576 734 125 500 350 955 b 619 699 598 715 617 699 b 715 807 622 700 713 801 b 674 855 714 813 678 849 b 214 21 241 1299 -327 164 b 660 388 426 -9 597 197 b 832 575 876 450 875 364 "},"H":{"ha":746,"x_min":0,"x_max":0,"o":"m 704 440 b 698 411 703 431 708 410 b 608 404 694 408 600 414 b 588 154 606 397 596 268 b 578 16 580 28 579 19 b 431 27 586 13 416 23 b 240 375 426 448 562 409 b 246 148 240 281 210 182 b 240 127 246 148 243 138 b 214 29 227 115 241 19 b 172 20 189 23 219 0 b 83 24 137 33 120 24 b 69 56 75 34 80 51 b 69 82 55 60 65 65 b 45 326 88 148 70 286 b 30 344 40 335 35 337 b 21 355 30 352 20 345 b 11 376 22 368 6 361 b 7 412 13 397 -12 382 b -1 431 0 418 -11 423 b -1 452 9 436 -5 447 b 15 484 3 458 10 484 b 25 495 18 485 18 496 b 32 502 29 495 30 496 b 41 508 33 508 34 508 b 57 524 52 507 53 517 b 90 533 72 515 79 520 l 100 523 b 121 741 99 548 110 637 b 116 831 122 800 143 822 b 148 945 133 855 141 915 b 159 946 150 946 155 947 b 178 963 169 940 174 959 b 288 938 220 945 207 942 b 310 901 297 934 293 904 b 291 861 309 899 295 868 b 280 765 289 843 289 751 b 266 672 275 765 276 768 b 254 532 256 576 252 534 b 456 551 258 531 452 549 b 491 664 490 557 475 613 b 508 777 511 758 493 732 b 512 849 523 810 518 821 b 537 869 522 859 528 853 b 577 881 554 898 549 889 b 656 879 596 863 646 886 b 678 849 668 872 665 855 b 683 815 691 842 690 832 b 744 453 669 706 714 561 b 704 440 734 450 714 443 "},"h":{"ha":746,"x_min":0,"x_max":0,"o":"m 704 440 b 744 453 714 443 734 450 b 683 815 714 561 669 706 b 678 849 690 832 691 842 b 656 879 665 855 668 872 b 577 881 646 886 596 863 b 537 869 549 889 554 898 b 512 849 528 853 522 859 b 508 777 518 821 523 810 b 491 664 493 732 511 758 b 456 551 475 613 490 557 b 254 532 452 549 258 531 b 266 672 252 534 256 576 b 280 765 276 768 275 765 b 291 861 289 751 289 843 b 310 901 295 868 309 899 b 288 938 293 904 297 934 b 178 963 207 942 220 945 b 159 946 174 959 169 940 b 148 945 155 947 150 946 b 116 831 141 915 133 855 b 121 741 143 822 122 800 b 100 523 110 637 99 548 l 90 533 b 57 524 79 520 72 515 b 41 508 53 517 52 507 b 32 502 34 508 33 508 b 25 495 30 496 29 495 b 15 484 18 496 18 485 b -1 452 10 484 3 458 b -1 431 -5 447 9 436 b 7 412 -11 423 0 418 b 11 376 -12 382 13 397 b 21 355 6 361 22 368 b 30 344 20 345 30 352 b 45 326 35 337 40 335 b 69 82 70 286 88 148 b 69 56 65 65 55 60 b 83 24 80 51 75 34 b 172 20 120 24 137 33 b 214 29 219 0 189 23 b 240 127 241 19 227 115 b 246 148 243 138 246 148 b 240 375 210 182 240 281 b 431 27 562 409 426 448 b 578 16 416 23 586 13 b 588 154 579 19 580 28 b 608 404 596 268 606 397 b 698 411 600 414 694 408 b 704 440 708 410 703 431 "},"I":{"ha":274,"x_min":0,"x_max":0,"o":"m 270 791 b 264 774 264 790 264 789 b 277 688 263 763 276 698 b 249 672 279 682 245 680 b 211 350 241 607 219 416 b 190 344 211 341 197 344 b 169 199 190 320 156 210 b 199 173 174 196 192 179 b 154 118 190 158 168 135 b 132 83 167 87 162 92 b 102 49 123 72 116 39 b 66 49 86 55 81 29 l 57 58 b 12 82 21 43 23 47 b -19 125 -16 91 -36 94 b -31 138 -22 129 -28 135 b -13 159 -26 143 -17 154 b 6 204 -33 206 -4 178 b 20 268 7 209 13 237 b 68 694 22 308 110 679 b 91 743 74 706 86 731 b 94 796 91 755 82 801 b 100 898 112 816 111 868 b 133 934 115 902 121 923 b 192 922 148 931 177 925 b 242 933 202 924 240 934 b 270 908 246 916 257 920 b 269 868 276 906 276 908 b 271 820 265 855 266 832 b 271 791 274 801 284 794 "},"i":{"ha":274,"x_min":0,"x_max":0,"o":"m 271 791 b 271 820 284 794 274 801 b 269 868 266 832 265 855 b 270 908 276 908 276 906 b 242 933 257 920 246 916 b 192 922 240 934 202 924 b 133 934 177 925 148 931 b 100 898 121 923 115 902 b 94 796 111 868 112 816 b 91 743 82 801 91 755 b 68 694 86 731 74 706 b 20 268 110 679 22 308 b 6 204 13 237 7 209 b -13 159 -4 178 -33 206 b -31 138 -17 154 -26 143 b -19 125 -28 135 -22 129 b 12 82 -36 94 -16 91 b 57 58 23 47 21 43 l 66 49 b 102 49 81 29 86 55 b 132 83 116 39 123 72 b 154 118 162 92 167 87 b 199 173 168 135 190 158 b 169 199 192 179 174 196 b 190 344 156 210 190 320 b 211 350 197 344 211 341 b 249 672 219 416 241 607 b 277 688 245 680 279 682 b 264 774 276 698 263 763 b 270 791 264 789 264 790 "},"Ì":{"ha":274,"x_min":0,"x_max":0,"o":"m 270 791 b 264 774 264 790 264 789 b 277 688 263 763 276 698 b 249 672 279 682 245 680 b 211 350 241 607 219 416 b 190 344 211 341 197 344 b 169 199 190 320 156 210 b 199 173 174 196 192 179 b 154 118 190 158 168 135 b 132 83 167 87 162 92 b 102 49 123 72 116 39 b 66 49 86 55 81 29 l 57 58 b 12 82 21 43 23 47 b -19 125 -16 91 -36 94 b -31 138 -22 129 -28 135 b -13 159 -26 143 -17 154 b 6 204 -33 206 -4 178 b 20 268 7 209 13 237 b 68 694 22 308 110 679 b 91 743 74 706 86 731 b 94 796 91 755 82 801 b 100 898 112 816 111 868 b 133 934 115 902 121 923 b 192 922 148 931 177 925 b 242 933 202 924 240 934 b 270 908 246 916 257 920 b 269 868 276 906 276 908 b 271 820 265 855 266 832 b 271 791 274 801 284 794 "},"Í":{"ha":274,"x_min":0,"x_max":0,"o":"m 271 791 b 271 820 284 794 274 801 b 269 868 266 832 265 855 b 270 908 276 908 276 906 b 242 933 257 920 246 916 b 192 922 240 934 202 924 b 133 934 177 925 148 931 b 100 898 121 923 115 902 b 94 796 111 868 112 816 b 91 743 82 801 91 755 b 68 694 86 731 74 706 b 20 268 110 679 22 308 b 6 204 13 237 7 209 b -13 159 -4 178 -33 206 b -31 138 -17 154 -26 143 b -19 125 -28 135 -22 129 b 12 82 -36 94 -16 91 b 57 58 23 47 21 43 l 66 49 b 102 49 81 29 86 55 b 132 83 116 39 123 72 b 154 118 162 92 167 87 b 199 173 168 135 190 158 b 169 199 192 179 174 196 b 190 344 156 210 190 320 b 211 350 197 344 211 341 b 249 672 219 416 241 607 b 277 688 245 680 279 682 b 264 774 276 698 263 763 b 270 791 264 789 264 790 "},"Î":{"ha":274,"x_min":0,"x_max":0,"o":"m 270 791 b 264 774 264 790 264 789 b 277 688 263 763 276 698 b 249 672 279 682 245 680 b 211 350 241 607 219 416 b 190 344 211 341 197 344 b 169 199 190 320 156 210 b 199 173 174 196 192 179 b 154 118 190 158 168 135 b 132 83 167 87 162 92 b 102 49 123 72 116 39 b 66 49 86 55 81 29 l 57 58 b 12 82 21 43 23 47 b -19 125 -16 91 -36 94 b -31 138 -22 129 -28 135 b -13 159 -26 143 -17 154 b 6 204 -33 206 -4 178 b 20 268 7 209 13 237 b 68 694 22 308 110 679 b 91 743 74 706 86 731 b 94 796 91 755 82 801 b 100 898 112 816 111 868 b 133 934 115 902 121 923 b 192 922 148 931 177 925 b 242 933 202 924 240 934 b 270 908 246 916 257 920 b 269 868 276 906 276 908 b 271 820 265 855 266 832 b 271 791 274 801 284 794 "},"Ï":{"ha":274,"x_min":0,"x_max":0,"o":"m 271 791 b 271 820 284 794 274 801 b 269 868 266 832 265 855 b 270 908 276 908 276 906 b 242 933 257 920 246 916 b 192 922 240 934 202 924 b 133 934 177 925 148 931 b 100 898 121 923 115 902 b 94 796 111 868 112 816 b 91 743 82 801 91 755 b 68 694 86 731 74 706 b 20 268 110 679 22 308 b 6 204 13 237 7 209 b -13 159 -4 178 -33 206 b -31 138 -17 154 -26 143 b -19 125 -28 135 -22 129 b 12 82 -36 94 -16 91 b 57 58 23 47 21 43 l 66 49 b 102 49 81 29 86 55 b 132 83 116 39 123 72 b 154 118 162 92 167 87 b 199 173 168 135 190 158 b 169 199 192 179 174 196 b 190 344 156 210 190 320 b 211 350 197 344 211 341 b 249 672 219 416 241 607 b 277 688 245 680 279 682 b 264 774 276 698 263 763 b 270 791 264 789 264 790 "},"ì":{"ha":274,"x_min":0,"x_max":0,"o":"m 270 791 b 264 774 264 790 264 789 b 277 688 263 763 276 698 b 249 672 279 682 245 680 b 211 350 241 607 219 416 b 190 344 211 341 197 344 b 169 199 190 320 156 210 b 199 173 174 196 192 179 b 154 118 190 158 168 135 b 132 83 167 87 162 92 b 102 49 123 72 116 39 b 66 49 86 55 81 29 l 57 58 b 12 82 21 43 23 47 b -19 125 -16 91 -36 94 b -31 138 -22 129 -28 135 b -13 159 -26 143 -17 154 b 6 204 -33 206 -4 178 b 20 268 7 209 13 237 b 68 694 22 308 110 679 b 91 743 74 706 86 731 b 94 796 91 755 82 801 b 100 898 112 816 111 868 b 133 934 115 902 121 923 b 192 922 148 931 177 925 b 242 933 202 924 240 934 b 270 908 246 916 257 920 b 269 868 276 906 276 908 b 271 820 265 855 266 832 b 271 791 274 801 284 794 "},"í":{"ha":274,"x_min":0,"x_max":0,"o":"m 271 791 b 271 820 284 794 274 801 b 269 868 266 832 265 855 b 270 908 276 908 276 906 b 242 933 257 920 246 916 b 192 922 240 934 202 924 b 133 934 177 925 148 931 b 100 898 121 923 115 902 b 94 796 111 868 112 816 b 91 743 82 801 91 755 b 68 694 86 731 74 706 b 20 268 110 679 22 308 b 6 204 13 237 7 209 b -13 159 -4 178 -33 206 b -31 138 -17 154 -26 143 b -19 125 -28 135 -22 129 b 12 82 -36 94 -16 91 b 57 58 23 47 21 43 l 66 49 b 102 49 81 29 86 55 b 132 83 116 39 123 72 b 154 118 162 92 167 87 b 199 173 168 135 190 158 b 169 199 192 179 174 196 b 190 344 156 210 190 320 b 211 350 197 344 211 341 b 249 672 219 416 241 607 b 277 688 245 680 279 682 b 264 774 276 698 263 763 b 270 791 264 789 264 790 "},"î":{"ha":274,"x_min":0,"x_max":0,"o":"m 270 791 b 264 774 264 790 264 789 b 277 688 263 763 276 698 b 249 672 279 682 245 680 b 211 350 241 607 219 416 b 190 344 211 341 197 344 b 169 199 190 320 156 210 b 199 173 174 196 192 179 b 154 118 190 158 168 135 b 132 83 167 87 162 92 b 102 49 123 72 116 39 b 66 49 86 55 81 29 l 57 58 b 12 82 21 43 23 47 b -19 125 -16 91 -36 94 b -31 138 -22 129 -28 135 b -13 159 -26 143 -17 154 b 6 204 -33 206 -4 178 b 20 268 7 209 13 237 b 68 694 22 308 110 679 b 91 743 74 706 86 731 b 94 796 91 755 82 801 b 100 898 112 816 111 868 b 133 934 115 902 121 923 b 192 922 148 931 177 925 b 242 933 202 924 240 934 b 270 908 246 916 257 920 b 269 868 276 906 276 908 b 271 820 265 855 266 832 b 271 791 274 801 284 794 "},"ï":{"ha":274,"x_min":0,"x_max":0,"o":"m 271 791 b 271 820 284 794 274 801 b 269 868 266 832 265 855 b 270 908 276 908 276 906 b 242 933 257 920 246 916 b 192 922 240 934 202 924 b 133 934 177 925 148 931 b 100 898 121 923 115 902 b 94 796 111 868 112 816 b 91 743 82 801 91 755 b 68 694 86 731 74 706 b 20 268 110 679 22 308 b 6 204 13 237 7 209 b -13 159 -4 178 -33 206 b -31 138 -17 154 -26 143 b -19 125 -28 135 -22 129 b 12 82 -36 94 -16 91 b 57 58 23 47 21 43 l 66 49 b 102 49 81 29 86 55 b 132 83 116 39 123 72 b 154 118 162 92 167 87 b 199 173 168 135 190 158 b 169 199 192 179 174 196 b 190 344 156 210 190 320 b 211 350 197 344 211 341 b 249 672 219 416 241 607 b 277 688 245 680 279 682 b 264 774 276 698 263 763 b 270 791 264 789 264 790 "},"J":{"ha":617,"x_min":0,"x_max":0,"o":"m 671 888 b 654 858 644 880 667 862 b 576 511 610 791 619 792 b 332 -45 523 288 561 -43 b -31 287 198 -15 -66 103 b 47 474 -24 345 21 421 b 183 417 48 475 181 419 b 130 248 182 410 113 243 b 326 122 136 212 264 131 b 342 127 337 121 338 121 b 426 537 391 256 390 308 b 471 823 450 713 454 722 b 281 768 455 819 319 784 b 271 733 279 760 273 742 b 241 720 255 738 248 735 b 209 724 226 733 223 726 b 180 758 198 723 187 751 b 131 775 178 761 134 774 b 120 800 132 787 134 791 b 126 829 125 812 137 818 b 126 851 117 839 128 841 b 167 898 134 868 163 876 b 199 923 172 928 190 896 b 225 920 211 917 213 909 b 440 973 276 931 385 957 b 526 1008 480 987 499 1000 b 549 1005 526 1017 542 1008 b 561 1020 552 1009 558 1016 b 580 1004 566 1016 575 1008 b 597 1014 584 1006 593 1011 b 637 989 605 998 626 1000 b 657 962 647 981 649 973 b 660 949 662 957 662 956 b 659 911 654 928 687 933 b 671 888 662 905 668 894 "},"j":{"ha":617,"x_min":0,"x_max":0,"o":"m 671 888 b 659 911 668 894 662 905 b 660 949 687 933 654 928 b 657 962 662 956 662 957 b 637 989 649 973 647 981 b 597 1014 626 1000 605 998 b 580 1004 593 1011 584 1006 b 561 1020 575 1008 566 1016 b 549 1005 558 1016 552 1009 b 526 1008 542 1008 526 1017 b 440 973 499 1000 480 987 b 225 920 385 957 276 931 b 199 923 213 909 211 917 b 167 898 190 896 172 928 b 126 851 163 876 134 868 b 126 829 128 841 117 839 b 120 800 137 818 125 812 b 131 775 134 791 132 787 b 180 758 134 774 178 761 b 209 724 187 751 198 723 b 241 720 223 726 226 733 b 271 733 248 735 255 738 b 281 768 273 742 279 760 b 471 823 319 784 455 819 b 426 537 454 722 450 713 b 342 127 390 308 391 256 b 326 122 338 121 337 121 b 130 248 264 131 136 212 b 183 417 113 243 182 410 b 47 474 181 419 48 475 b -31 287 21 421 -24 345 b 332 -45 -66 103 198 -15 b 576 511 561 -43 523 288 b 654 858 619 792 610 791 b 671 888 667 862 644 880 "},"K":{"ha":819,"x_min":0,"x_max":0,"o":"m 712 126 b 755 77 736 101 756 78 b 649 -23 754 72 653 -23 b 604 20 648 -23 627 -4 b 215 333 504 84 338 454 b 187 -38 202 336 194 -36 b 186 -46 187 -38 186 -46 b 99 -41 162 -45 143 -44 b 41 31 17 -29 40 -61 b 58 331 45 92 53 278 b 24 363 40 339 27 347 b 35 405 23 374 45 393 b 40 422 30 418 30 419 b 68 464 56 430 68 442 b 110 907 84 614 97 774 b 119 952 83 932 101 934 b 120 988 122 956 120 981 b 155 1015 136 987 141 1008 b 207 1021 180 1002 187 1005 b 267 992 227 994 235 986 b 279 933 273 954 301 980 b 270 886 305 906 296 906 b 237 616 269 837 233 650 b 602 935 295 667 559 906 b 691 816 619 905 707 834 b 350 507 612 740 393 565 b 712 126 501 448 570 255 "},"k":{"ha":819,"x_min":0,"x_max":0,"o":"m 712 126 b 350 507 570 255 501 448 b 691 816 393 565 612 740 b 602 935 707 834 619 905 b 237 616 559 906 295 667 b 270 886 233 650 269 837 b 279 933 296 906 305 906 b 267 992 301 980 273 954 b 207 1021 235 986 227 994 b 155 1015 187 1005 180 1002 b 120 988 141 1008 136 987 b 119 952 120 981 122 956 b 110 907 101 934 83 932 b 68 464 97 774 84 614 b 40 422 68 442 56 430 b 35 405 30 419 30 418 b 24 363 45 393 23 374 b 58 331 27 347 40 339 b 41 31 53 278 45 92 b 99 -41 40 -61 17 -29 b 186 -46 143 -44 162 -45 b 187 -38 186 -46 187 -38 b 215 333 194 -36 202 336 b 604 20 338 454 504 84 b 649 -23 627 -4 648 -23 b 755 77 653 -23 754 72 b 712 126 756 78 736 101 "},"L":{"ha":653,"x_min":0,"x_max":0,"o":"m 601 173 b 152 63 465 164 242 118 b 159 23 150 61 161 24 b 86 -9 138 17 102 2 b 66 -17 72 -10 88 -22 b 24 -26 42 -10 45 -46 l 13 -18 b -42 -9 -4 -17 -41 -26 b -54 -1 -44 -5 -55 -9 b -59 5 -54 3 -55 5 b -69 21 -66 5 -63 20 b -72 29 -73 22 -73 23 b -76 40 -70 36 -70 37 b -80 67 -88 47 -78 53 b -71 112 -80 83 -68 97 b -65 123 -72 122 -72 122 b -51 136 -56 125 -55 131 b -42 143 -52 141 -42 138 b -19 158 -37 154 -33 165 b 92 204 -1 188 58 186 b 96 212 99 208 99 208 b 140 873 112 399 125 666 b 147 926 110 881 140 904 b 147 972 145 939 133 975 b 158 981 152 973 155 975 b 188 998 162 998 184 980 b 233 987 193 1022 218 991 b 302 968 321 1009 262 984 b 308 947 311 971 301 946 b 322 937 312 945 319 940 b 304 900 318 929 304 906 b 303 851 302 893 322 844 b 261 272 259 683 270 458 b 590 320 331 295 541 324 b 601 173 586 315 616 179 "},"l":{"ha":653,"x_min":0,"x_max":0,"o":"m 601 173 b 590 320 616 179 586 315 b 261 272 541 324 331 295 b 303 851 270 458 259 683 b 304 900 322 844 302 893 b 322 937 304 906 318 929 b 308 947 319 940 312 945 b 302 968 301 946 311 971 b 233 987 262 984 321 1009 b 188 998 218 991 193 1022 b 158 981 184 980 162 998 b 147 972 155 975 152 973 b 147 926 133 975 145 939 b 140 873 140 904 110 881 b 96 212 125 666 112 399 b 92 204 99 208 99 208 b -19 158 58 186 -1 188 b -42 143 -33 165 -37 154 b -51 136 -42 138 -52 141 b -65 123 -55 131 -56 125 b -71 112 -72 122 -72 122 b -80 67 -68 97 -80 83 b -76 40 -78 53 -88 47 b -72 29 -70 37 -70 36 b -69 21 -73 23 -73 22 b -59 5 -63 20 -66 5 b -54 -1 -55 5 -54 3 b -42 -9 -55 -9 -44 -5 b 13 -18 -41 -26 -4 -17 l 24 -26 b 66 -17 45 -46 42 -10 b 86 -9 88 -22 72 -10 b 159 23 102 2 138 17 b 152 63 161 24 150 61 b 601 173 242 118 465 164 "},"M":{"ha":844,"x_min":0,"x_max":0,"o":"m 837 864 b 857 839 842 858 852 845 b 745 95 799 786 759 365 b 742 30 744 60 742 31 b 594 35 740 28 596 33 b 644 646 584 191 628 494 b 568 552 643 647 592 585 b 490 395 503 466 511 452 b 475 368 500 380 468 384 b 454 344 481 349 449 360 b 443 335 454 336 454 336 b 430 328 434 335 432 334 b 408 321 427 318 413 328 b 391 319 402 313 397 325 b 372 321 384 315 382 323 b 338 333 360 319 352 333 b 319 352 327 335 336 353 b 301 373 302 352 317 370 b 291 393 281 379 305 384 b 243 566 272 436 271 498 b 122 63 194 404 97 197 b 82 44 105 54 107 41 b -16 24 73 51 40 32 b -27 36 -18 32 -23 30 b -34 46 -28 43 -35 39 b -39 52 -34 51 -36 52 b -47 63 -46 52 -42 59 b -51 140 -55 70 -41 122 b -51 171 -59 165 -53 162 b -49 176 -52 175 -52 176 b -41 187 -43 176 -48 188 b -34 198 -35 186 -38 198 b 95 603 15 339 32 436 b 167 807 138 716 125 743 b 190 826 189 808 171 826 b 230 845 207 830 206 843 b 276 843 247 850 260 847 b 296 835 285 846 286 836 b 306 827 303 834 304 833 b 326 811 306 812 329 827 b 342 787 322 796 348 801 b 348 776 341 780 342 779 b 352 767 354 773 355 772 b 364 689 357 743 361 718 b 399 580 366 680 397 584 b 421 609 400 579 410 592 b 668 908 487 712 599 817 b 693 930 669 920 694 916 b 705 936 695 939 695 939 b 779 949 736 928 750 960 b 798 940 787 949 791 937 b 807 936 805 942 801 936 b 817 924 814 937 810 923 b 823 920 820 924 822 922 b 830 914 824 917 827 915 b 837 864 838 918 836 874 "},"m":{"ha":844,"x_min":0,"x_max":0,"o":"m 837 864 b 830 914 836 874 838 918 b 823 920 827 915 824 917 b 817 924 822 922 820 924 b 807 936 810 923 814 937 b 798 940 801 936 805 942 b 779 949 791 937 787 949 b 705 936 750 960 736 928 b 693 930 695 939 695 939 b 668 908 694 916 669 920 b 421 609 599 817 487 712 b 399 580 410 592 400 579 b 364 689 397 584 366 680 b 352 767 361 718 357 743 b 348 776 355 772 354 773 b 342 787 342 779 341 780 b 326 811 348 801 322 796 b 306 827 329 827 306 812 b 296 835 304 833 303 834 b 276 843 286 836 285 846 b 230 845 260 847 247 850 b 190 826 206 843 207 830 b 167 807 171 826 189 808 b 95 603 125 743 138 716 b -34 198 32 436 15 339 b -41 187 -38 198 -35 186 b -49 176 -48 188 -43 176 b -51 171 -52 176 -52 175 b -51 140 -53 162 -59 165 b -47 63 -41 122 -55 70 b -39 52 -42 59 -46 52 b -34 46 -36 52 -34 51 b -27 36 -35 39 -28 43 b -16 24 -23 30 -18 32 b 82 44 40 32 73 51 b 122 63 107 41 105 54 b 243 566 97 197 194 404 b 291 393 271 498 272 436 b 301 373 305 384 281 379 b 319 352 317 370 302 352 b 338 333 336 353 327 335 b 372 321 352 333 360 319 b 391 319 382 323 384 315 b 408 321 397 325 402 313 b 430 328 413 328 427 318 b 443 335 432 334 434 335 b 454 344 454 336 454 336 b 475 368 449 360 481 349 b 490 395 468 384 500 380 b 568 552 511 452 503 466 b 644 646 592 585 643 647 b 594 35 628 494 584 191 b 742 30 596 33 740 28 b 745 95 742 31 744 60 b 857 839 759 365 799 786 b 837 864 852 845 842 858 "},"N":{"ha":747,"x_min":0,"x_max":0,"o":"m 853 985 b 507 61 883 1052 542 165 b 513 25 517 47 527 36 b 499 -3 501 14 527 0 b 440 -26 462 -16 500 -49 b 404 -48 433 -30 405 -56 b 379 -38 396 -44 387 -42 b 370 -27 374 -37 372 -35 b 333 7 366 -7 347 1 b 215 550 307 131 227 455 b 102 -61 154 447 111 105 b 19 -61 101 -66 103 -66 b -45 -55 -16 -59 -43 -56 b 108 737 -54 148 25 517 b 131 788 117 759 122 770 b 141 799 134 788 137 800 b 143 803 144 799 144 801 b 151 813 141 809 151 808 b 162 823 151 818 163 818 b 176 831 163 829 177 824 b 194 841 176 840 193 833 b 211 847 195 850 209 841 b 226 851 212 853 224 847 b 290 837 248 855 273 844 b 302 829 297 839 296 828 b 314 817 308 829 306 816 b 327 802 324 818 316 803 b 332 794 332 799 333 798 b 360 607 359 756 349 666 b 424 283 368 557 420 295 b 716 1040 493 446 711 1040 b 853 985 750 1024 836 999 "},"n":{"ha":747,"x_min":0,"x_max":0,"o":"m 853 985 b 716 1040 836 999 750 1024 b 424 283 711 1040 493 446 b 360 607 420 295 368 557 b 332 794 349 666 359 756 b 327 802 333 798 332 799 b 314 817 316 803 324 818 b 302 829 306 816 308 829 b 290 837 296 828 297 839 b 226 851 273 844 248 855 b 211 847 224 847 212 853 b 194 841 209 841 195 850 b 176 831 193 833 176 840 b 162 823 177 824 163 829 b 151 813 163 818 151 818 b 143 803 151 808 141 809 b 141 799 144 801 144 799 b 131 788 137 800 134 788 b 108 737 122 770 117 759 b -45 -55 25 517 -54 148 b 19 -61 -43 -56 -16 -59 b 102 -61 103 -66 101 -66 b 215 550 111 105 154 447 b 333 7 227 455 307 131 b 370 -27 347 1 366 -7 b 379 -38 372 -35 374 -37 b 404 -48 387 -42 396 -44 b 440 -26 405 -56 433 -30 b 499 -3 500 -49 462 -16 b 513 25 527 0 501 14 b 507 61 527 36 517 47 b 853 985 542 165 883 1052 "},"Ñ":{"ha":747,"x_min":0,"x_max":0,"o":"m 853 985 b 507 61 883 1052 542 165 b 513 25 517 47 527 36 b 499 -3 501 14 527 0 b 440 -26 462 -16 500 -49 b 404 -48 433 -30 405 -56 b 379 -38 396 -44 387 -42 b 370 -27 374 -37 372 -35 b 333 7 366 -7 347 1 b 215 550 307 131 227 455 b 102 -61 154 447 111 105 b 19 -61 101 -66 103 -66 b -45 -55 -16 -59 -43 -56 b 108 737 -54 148 25 517 b 131 788 117 759 122 770 b 141 799 134 788 137 800 b 143 803 144 799 144 801 b 151 813 141 809 151 808 b 162 823 151 818 163 818 b 176 831 163 829 177 824 b 194 841 176 840 193 833 b 211 847 195 850 209 841 b 226 851 212 853 224 847 b 290 837 248 855 273 844 b 302 829 297 839 296 828 b 314 817 308 829 306 816 b 327 802 324 818 316 803 b 332 794 332 799 333 798 b 360 607 359 756 349 666 b 424 283 368 557 420 295 b 716 1040 493 446 711 1040 b 853 985 750 1024 836 999 "},"ñ":{"ha":747,"x_min":0,"x_max":0,"o":"m 853 985 b 716 1040 836 999 750 1024 b 424 283 711 1040 493 446 b 360 607 420 295 368 557 b 332 794 349 666 359 756 b 327 802 333 798 332 799 b 314 817 316 803 324 818 b 302 829 306 816 308 829 b 290 837 296 828 297 839 b 226 851 273 844 248 855 b 211 847 224 847 212 853 b 194 841 209 841 195 850 b 176 831 193 833 176 840 b 162 823 177 824 163 829 b 151 813 163 818 151 818 b 143 803 151 808 141 809 b 141 799 144 801 144 799 b 131 788 137 800 134 788 b 108 737 122 770 117 759 b -45 -55 25 517 -54 148 b 19 -61 -43 -56 -16 -59 b 102 -61 103 -66 101 -66 b 215 550 111 105 154 447 b 333 7 227 455 307 131 b 370 -27 347 1 366 -7 b 379 -38 372 -35 374 -37 b 404 -48 387 -42 396 -44 b 440 -26 405 -56 433 -30 b 499 -3 500 -49 462 -16 b 513 25 527 0 501 14 b 507 61 527 36 517 47 b 853 985 542 165 883 1052 "},"O":{"ha":688,"x_min":0,"x_max":0,"o":"m 598 358 b 643 217 603 358 647 222 b 400 135 640 214 640 214 b 150 51 270 92 217 75 b 146 29 149 46 152 27 b 141 26 143 29 141 28 b 120 17 140 18 120 31 b 84 20 115 0 96 18 b 53 6 77 16 58 0 b 39 27 47 9 42 20 b -21 63 -27 21 18 53 b -23 123 -10 88 -2 99 b 1 164 -20 140 1 147 b 26 178 2 181 11 181 b 35 198 29 183 33 193 b 107 204 71 176 75 201 b 317 267 128 205 132 206 b 598 358 505 330 592 358 m 221 269 b 195 956 -61 311 41 844 b 293 965 198 966 276 977 b 342 953 317 963 318 944 b 221 269 825 1055 585 207 m 231 722 b 289 436 208 657 148 389 b 430 805 389 475 523 719 b 282 743 380 804 373 800 b 231 722 249 724 243 715 "},"o":{"ha":688,"x_min":0,"x_max":0,"o":"m 598 358 b 317 267 592 358 505 330 b 107 204 132 206 128 205 b 35 198 75 201 71 176 b 26 178 33 193 29 183 b 1 164 11 181 2 181 b -23 123 1 147 -20 140 b -21 63 -2 99 -10 88 b 39 27 18 53 -27 21 b 53 6 42 20 47 9 b 84 20 58 0 77 16 b 120 17 96 18 115 0 b 141 26 120 31 140 18 b 146 29 141 28 143 29 b 150 51 152 27 149 46 b 400 135 217 75 270 92 b 643 217 640 214 640 214 b 598 358 647 222 603 358 m 221 269 b 342 953 585 207 825 1055 b 293 965 318 944 317 963 b 195 956 276 977 198 966 b 221 269 41 844 -61 311 m 231 722 b 282 743 243 715 249 724 b 430 805 373 800 380 804 b 289 436 523 719 389 475 b 231 722 148 389 208 657 "},"Ò":{"ha":688,"x_min":0,"x_max":0,"o":"m 598 358 b 643 217 603 358 647 222 b 400 135 640 214 640 214 b 150 51 270 92 217 75 b 146 29 149 46 152 27 b 141 26 143 29 141 28 b 120 17 140 18 120 31 b 84 20 115 0 96 18 b 53 6 77 16 58 0 b 39 27 47 9 42 20 b -21 63 -27 21 18 53 b -23 123 -10 88 -2 99 b 1 164 -20 140 1 147 b 26 178 2 181 11 181 b 35 198 29 183 33 193 b 107 204 71 176 75 201 b 317 267 128 205 132 206 b 598 358 505 330 592 358 m 221 269 b 195 956 -61 311 41 844 b 293 965 198 966 276 977 b 342 953 317 963 318 944 b 221 269 825 1055 585 207 m 231 722 b 289 436 208 657 148 389 b 430 805 389 475 523 719 b 282 743 380 804 373 800 b 231 722 249 724 243 715 "},"Ó":{"ha":688,"x_min":0,"x_max":0,"o":"m 598 358 b 317 267 592 358 505 330 b 107 204 132 206 128 205 b 35 198 75 201 71 176 b 26 178 33 193 29 183 b 1 164 11 181 2 181 b -23 123 1 147 -20 140 b -21 63 -2 99 -10 88 b 39 27 18 53 -27 21 b 53 6 42 20 47 9 b 84 20 58 0 77 16 b 120 17 96 18 115 0 b 141 26 120 31 140 18 b 146 29 141 28 143 29 b 150 51 152 27 149 46 b 400 135 217 75 270 92 b 643 217 640 214 640 214 b 598 358 647 222 603 358 m 221 269 b 342 953 585 207 825 1055 b 293 965 318 944 317 963 b 195 956 276 977 198 966 b 221 269 41 844 -61 311 m 231 722 b 282 743 243 715 249 724 b 430 805 373 800 380 804 b 289 436 523 719 389 475 b 231 722 148 389 208 657 "},"Ô":{"ha":688,"x_min":0,"x_max":0,"o":"m 598 358 b 643 217 603 358 647 222 b 400 135 640 214 640 214 b 150 51 270 92 217 75 b 146 29 149 46 152 27 b 141 26 143 29 141 28 b 120 17 140 18 120 31 b 84 20 115 0 96 18 b 53 6 77 16 58 0 b 39 27 47 9 42 20 b -21 63 -27 21 18 53 b -23 123 -10 88 -2 99 b 1 164 -20 140 1 147 b 26 178 2 181 11 181 b 35 198 29 183 33 193 b 107 204 71 176 75 201 b 317 267 128 205 132 206 b 598 358 505 330 592 358 m 221 269 b 195 956 -61 311 41 844 b 293 965 198 966 276 977 b 342 953 317 963 318 944 b 221 269 825 1055 585 207 m 231 722 b 289 436 208 657 148 389 b 430 805 389 475 523 719 b 282 743 380 804 373 800 b 231 722 249 724 243 715 "},"Õ":{"ha":688,"x_min":0,"x_max":0,"o":"m 598 358 b 317 267 592 358 505 330 b 107 204 132 206 128 205 b 35 198 75 201 71 176 b 26 178 33 193 29 183 b 1 164 11 181 2 181 b -23 123 1 147 -20 140 b -21 63 -2 99 -10 88 b 39 27 18 53 -27 21 b 53 6 42 20 47 9 b 84 20 58 0 77 16 b 120 17 96 18 115 0 b 141 26 120 31 140 18 b 146 29 141 28 143 29 b 150 51 152 27 149 46 b 400 135 217 75 270 92 b 643 217 640 214 640 214 b 598 358 647 222 603 358 m 221 269 b 342 953 585 207 825 1055 b 293 965 318 944 317 963 b 195 956 276 977 198 966 b 221 269 41 844 -61 311 m 231 722 b 282 743 243 715 249 724 b 430 805 373 800 380 804 b 289 436 523 719 389 475 b 231 722 148 389 208 657 "},"Ö":{"ha":688,"x_min":0,"x_max":0,"o":"m 598 358 b 643 217 603 358 647 222 b 400 135 640 214 640 214 b 150 51 270 92 217 75 b 146 29 149 46 152 27 b 141 26 143 29 141 28 b 120 17 140 18 120 31 b 84 20 115 0 96 18 b 53 6 77 16 58 0 b 39 27 47 9 42 20 b -21 63 -27 21 18 53 b -23 123 -10 88 -2 99 b 1 164 -20 140 1 147 b 26 178 2 181 11 181 b 35 198 29 183 33 193 b 107 204 71 176 75 201 b 317 267 128 205 132 206 b 598 358 505 330 592 358 m 221 269 b 195 956 -61 311 41 844 b 293 965 198 966 276 977 b 342 953 317 963 318 944 b 221 269 825 1055 585 207 m 231 722 b 289 436 208 657 148 389 b 430 805 389 475 523 719 b 282 743 380 804 373 800 b 231 722 249 724 243 715 "},"Ø":{"ha":688,"x_min":0,"x_max":0,"o":"m 598 358 b 317 267 592 358 505 330 b 107 204 132 206 128 205 b 35 198 75 201 71 176 b 26 178 33 193 29 183 b 1 164 11 181 2 181 b -23 123 1 147 -20 140 b -21 63 -2 99 -10 88 b 39 27 18 53 -27 21 b 53 6 42 20 47 9 b 84 20 58 0 77 16 b 120 17 96 18 115 0 b 141 26 120 31 140 18 b 146 29 141 28 143 29 b 150 51 152 27 149 46 b 400 135 217 75 270 92 b 643 217 640 214 640 214 b 598 358 647 222 603 358 m 221 269 b 342 953 585 207 825 1055 b 293 965 318 944 317 963 b 195 956 276 977 198 966 b 221 269 41 844 -61 311 m 231 722 b 282 743 243 715 249 724 b 430 805 373 800 380 804 b 289 436 523 719 389 475 b 231 722 148 389 208 657 "},"ò":{"ha":688,"x_min":0,"x_max":0,"o":"m 598 358 b 643 217 603 358 647 222 b 400 135 640 214 640 214 b 150 51 270 92 217 75 b 146 29 149 46 152 27 b 141 26 143 29 141 28 b 120 17 140 18 120 31 b 84 20 115 0 96 18 b 53 6 77 16 58 0 b 39 27 47 9 42 20 b -21 63 -27 21 18 53 b -23 123 -10 88 -2 99 b 1 164 -20 140 1 147 b 26 178 2 181 11 181 b 35 198 29 183 33 193 b 107 204 71 176 75 201 b 317 267 128 205 132 206 b 598 358 505 330 592 358 m 221 269 b 195 956 -61 311 41 844 b 293 965 198 966 276 977 b 342 953 317 963 318 944 b 221 269 825 1055 585 207 m 231 722 b 289 436 208 657 148 389 b 430 805 389 475 523 719 b 282 743 380 804 373 800 b 231 722 249 724 243 715 "},"ó":{"ha":688,"x_min":0,"x_max":0,"o":"m 598 358 b 317 267 592 358 505 330 b 107 204 132 206 128 205 b 35 198 75 201 71 176 b 26 178 33 193 29 183 b 1 164 11 181 2 181 b -23 123 1 147 -20 140 b -21 63 -2 99 -10 88 b 39 27 18 53 -27 21 b 53 6 42 20 47 9 b 84 20 58 0 77 16 b 120 17 96 18 115 0 b 141 26 120 31 140 18 b 146 29 141 28 143 29 b 150 51 152 27 149 46 b 400 135 217 75 270 92 b 643 217 640 214 640 214 b 598 358 647 222 603 358 m 221 269 b 342 953 585 207 825 1055 b 293 965 318 944 317 963 b 195 956 276 977 198 966 b 221 269 41 844 -61 311 m 231 722 b 282 743 243 715 249 724 b 430 805 373 800 380 804 b 289 436 523 719 389 475 b 231 722 148 389 208 657 "},"ô":{"ha":688,"x_min":0,"x_max":0,"o":"m 598 358 b 643 217 603 358 647 222 b 400 135 640 214 640 214 b 150 51 270 92 217 75 b 146 29 149 46 152 27 b 141 26 143 29 141 28 b 120 17 140 18 120 31 b 84 20 115 0 96 18 b 53 6 77 16 58 0 b 39 27 47 9 42 20 b -21 63 -27 21 18 53 b -23 123 -10 88 -2 99 b 1 164 -20 140 1 147 b 26 178 2 181 11 181 b 35 198 29 183 33 193 b 107 204 71 176 75 201 b 317 267 128 205 132 206 b 598 358 505 330 592 358 m 221 269 b 195 956 -61 311 41 844 b 293 965 198 966 276 977 b 342 953 317 963 318 944 b 221 269 825 1055 585 207 m 231 722 b 289 436 208 657 148 389 b 430 805 389 475 523 719 b 282 743 380 804 373 800 b 231 722 249 724 243 715 "},"õ":{"ha":688,"x_min":0,"x_max":0,"o":"m 598 358 b 317 267 592 358 505 330 b 107 204 132 206 128 205 b 35 198 75 201 71 176 b 26 178 33 193 29 183 b 1 164 11 181 2 181 b -23 123 1 147 -20 140 b -21 63 -2 99 -10 88 b 39 27 18 53 -27 21 b 53 6 42 20 47 9 b 84 20 58 0 77 16 b 120 17 96 18 115 0 b 141 26 120 31 140 18 b 146 29 141 28 143 29 b 150 51 152 27 149 46 b 400 135 217 75 270 92 b 643 217 640 214 640 214 b 598 358 647 222 603 358 m 221 269 b 342 953 585 207 825 1055 b 293 965 318 944 317 963 b 195 956 276 977 198 966 b 221 269 41 844 -61 311 m 231 722 b 282 743 243 715 249 724 b 430 805 373 800 380 804 b 289 436 523 719 389 475 b 231 722 148 389 208 657 "},"ö":{"ha":688,"x_min":0,"x_max":0,"o":"m 598 358 b 643 217 603 358 647 222 b 400 135 640 214 640 214 b 150 51 270 92 217 75 b 146 29 149 46 152 27 b 141 26 143 29 141 28 b 120 17 140 18 120 31 b 84 20 115 0 96 18 b 53 6 77 16 58 0 b 39 27 47 9 42 20 b -21 63 -27 21 18 53 b -23 123 -10 88 -2 99 b 1 164 -20 140 1 147 b 26 178 2 181 11 181 b 35 198 29 183 33 193 b 107 204 71 176 75 201 b 317 267 128 205 132 206 b 598 358 505 330 592 358 m 221 269 b 195 956 -61 311 41 844 b 293 965 198 966 276 977 b 342 953 317 963 318 944 b 221 269 825 1055 585 207 m 231 722 b 289 436 208 657 148 389 b 430 805 389 475 523 719 b 282 743 380 804 373 800 b 231 722 249 724 243 715 "},"ø":{"ha":688,"x_min":0,"x_max":0,"o":"m 598 358 b 317 267 592 358 505 330 b 107 204 132 206 128 205 b 35 198 75 201 71 176 b 26 178 33 193 29 183 b 1 164 11 181 2 181 b -23 123 1 147 -20 140 b -21 63 -2 99 -10 88 b 39 27 18 53 -27 21 b 53 6 42 20 47 9 b 84 20 58 0 77 16 b 120 17 96 18 115 0 b 141 26 120 31 140 18 b 146 29 141 28 143 29 b 150 51 152 27 149 46 b 400 135 217 75 270 92 b 643 217 640 214 640 214 b 598 358 647 222 603 358 m 221 269 b 342 953 585 207 825 1055 b 293 965 318 944 317 963 b 195 956 276 977 198 966 b 221 269 41 844 -61 311 m 231 722 b 282 743 243 715 249 724 b 430 805 373 800 380 804 b 289 436 523 719 389 475 b 231 722 148 389 208 657 "},"P":{"ha":746,"x_min":0,"x_max":0,"o":"m 624 1023 b 428 397 1082 950 658 526 b 414 117 430 373 398 154 b 417 80 429 120 416 91 b 440 60 423 75 435 65 b 434 12 421 44 432 30 b 405 -11 434 5 401 -1 b 366 -26 406 -38 388 -28 b 332 -41 353 -34 346 -61 l 324 -33 b 301 -40 318 -36 305 -44 b 285 -31 295 -33 290 -35 b 258 -1 278 -20 258 -16 b 241 54 266 29 226 39 b 241 87 257 61 232 81 b 244 96 244 89 245 92 b 270 343 260 154 265 264 b 282 483 220 429 177 419 b 311 778 286 532 308 728 b 226 725 308 781 248 744 b 221 672 206 709 206 711 b 232 635 229 650 233 636 b 97 583 229 632 101 583 b 624 1023 -143 849 453 1026 m 496 637 b 660 852 559 696 659 773 b 474 844 629 876 534 864 b 485 815 471 842 473 838 b 464 764 508 779 493 777 b 447 598 460 726 447 617 b 496 637 462 609 473 618 "},"p":{"ha":746,"x_min":0,"x_max":0,"o":"m 624 1023 b 97 583 453 1026 -143 849 b 232 635 101 583 229 632 b 221 672 233 636 229 650 b 226 725 206 711 206 709 b 311 778 248 744 308 781 b 282 483 308 728 286 532 b 270 343 177 419 220 429 b 244 96 265 264 260 154 b 241 87 245 92 244 89 b 241 54 232 81 257 61 b 258 -1 226 39 266 29 b 285 -31 258 -16 278 -20 b 301 -40 290 -35 295 -33 b 324 -33 305 -44 318 -36 l 332 -41 b 366 -26 346 -61 353 -34 b 405 -11 388 -28 406 -38 b 434 12 401 -1 434 5 b 440 60 432 30 421 44 b 417 80 435 65 423 75 b 414 117 416 91 429 120 b 428 397 398 154 430 373 b 624 1023 658 526 1082 950 m 496 637 b 447 598 473 618 462 609 b 464 764 447 617 460 726 b 485 815 493 777 508 779 b 474 844 473 838 471 842 b 660 852 534 864 629 876 b 496 637 659 773 559 696 "},"Q":{"ha":829,"x_min":0,"x_max":0,"o":"m 788 201 b 671 162 786 199 756 189 b 515 112 597 139 515 113 b 518 101 515 112 516 107 b 520 88 519 94 520 89 b 455 69 519 88 490 79 b 388 52 408 55 390 51 b 384 61 386 54 384 57 b 379 67 383 64 381 67 b 348 55 378 67 364 61 b 245 24 307 37 286 31 b 216 10 225 21 225 20 b 205 0 211 5 206 0 b 194 8 204 0 200 4 l 185 16 l 175 12 b 164 8 169 10 164 8 b 160 15 163 8 162 11 b 151 21 157 19 155 21 b 137 44 141 21 138 25 b 110 84 135 62 135 62 l 104 89 l 121 108 l 117 117 b 112 129 115 121 113 127 b 127 147 110 135 118 144 b 134 155 132 149 134 150 l 134 161 l 170 163 l 196 191 l 211 177 l 222 182 b 242 186 228 184 237 186 b 253 180 250 186 251 186 l 255 174 l 277 181 b 298 190 289 185 299 189 b 287 193 297 191 293 193 b 192 236 261 196 216 217 b 106 343 158 263 129 300 b 47 512 80 392 56 460 b 72 784 32 595 41 689 b 143 932 93 847 116 896 b 155 948 148 938 153 946 b 192 1000 162 963 183 992 b 213 1010 200 1007 204 1009 b 234 1018 221 1011 228 1014 b 283 1032 247 1027 266 1032 b 298 1030 291 1031 297 1030 b 315 1037 300 1027 309 1031 b 323 1042 318 1040 321 1042 b 326 1044 325 1042 326 1043 b 361 1058 326 1048 349 1057 b 384 1062 368 1059 378 1061 b 451 1058 404 1068 429 1066 b 485 1048 458 1055 473 1051 b 615 954 536 1034 587 997 b 658 862 629 933 648 892 b 634 434 710 709 703 584 b 514 271 601 365 562 311 b 499 256 503 262 497 255 b 711 322 506 259 671 310 b 749 331 731 328 748 332 b 788 201 752 328 789 203 m 436 400 b 474 443 439 397 458 420 b 500 489 480 452 492 473 b 525 806 554 600 562 697 b 462 898 508 855 487 885 b 414 912 453 902 429 910 b 392 904 405 913 403 912 b 308 830 375 893 351 872 l 271 795 l 244 822 l 234 802 b 190 663 213 760 198 713 b 188 544 184 632 183 569 b 276 359 202 465 238 388 l 287 349 l 289 361 b 287 387 291 370 290 376 b 279 410 285 394 282 405 b 277 429 274 420 274 424 b 277 433 278 430 278 432 b 279 437 276 434 277 436 b 282 441 281 437 282 439 b 290 446 282 442 286 445 b 299 458 296 448 297 450 b 309 465 301 466 302 466 b 361 466 348 461 347 461 b 387 476 369 468 380 473 b 408 473 400 482 405 481 b 414 467 410 469 412 467 b 418 465 417 467 418 466 b 422 462 418 464 420 463 b 427 458 425 461 427 459 b 432 453 427 456 429 454 b 435 427 436 452 436 452 b 436 400 435 413 435 401 "},"q":{"ha":829,"x_min":0,"x_max":0,"o":"m 788 201 b 749 331 789 203 752 328 b 711 322 748 332 731 328 b 499 256 671 310 506 259 b 514 271 497 255 503 262 b 634 434 562 311 601 365 b 658 862 703 584 710 709 b 615 954 648 892 629 933 b 485 1048 587 997 536 1034 b 451 1058 473 1051 458 1055 b 384 1062 429 1066 404 1068 b 361 1058 378 1061 368 1059 b 326 1044 349 1057 326 1048 b 323 1042 326 1043 325 1042 b 315 1037 321 1042 318 1040 b 298 1030 309 1031 300 1027 b 283 1032 297 1030 291 1031 b 234 1018 266 1032 247 1027 b 213 1010 228 1014 221 1011 b 192 1000 204 1009 200 1007 b 155 948 183 992 162 963 b 143 932 153 946 148 938 b 72 784 116 896 93 847 b 47 512 41 689 32 595 b 106 343 56 460 80 392 b 192 236 129 300 158 263 b 287 193 216 217 261 196 b 298 190 293 193 297 191 b 277 181 299 189 289 185 l 255 174 l 253 180 b 242 186 251 186 250 186 b 222 182 237 186 228 184 l 211 177 l 196 191 l 170 163 l 134 161 l 134 155 b 127 147 134 150 132 149 b 112 129 118 144 110 135 b 117 117 113 127 115 121 l 121 108 l 104 89 l 110 84 b 137 44 135 62 135 62 b 151 21 138 25 141 21 b 160 15 155 21 157 19 b 164 8 162 11 163 8 b 175 12 164 8 169 10 l 185 16 l 194 8 b 205 0 200 4 204 0 b 216 10 206 0 211 5 b 245 24 225 20 225 21 b 348 55 286 31 307 37 b 379 67 364 61 378 67 b 384 61 381 67 383 64 b 388 52 384 57 386 54 b 455 69 390 51 408 55 b 520 88 490 79 519 88 b 518 101 520 89 519 94 b 515 112 516 107 515 112 b 671 162 515 113 597 139 b 788 201 756 189 786 199 m 436 400 b 435 427 435 401 435 413 b 432 453 436 452 436 452 b 427 458 429 454 427 456 b 422 462 427 459 425 461 b 418 465 420 463 418 464 b 414 467 418 466 417 467 b 408 473 412 467 410 469 b 387 476 405 481 400 482 b 361 466 380 473 369 468 b 309 465 347 461 348 461 b 299 458 302 466 301 466 b 290 446 297 450 296 448 b 282 441 286 445 282 442 b 279 437 282 439 281 437 b 277 433 277 436 276 434 b 277 429 278 432 278 430 b 279 410 274 424 274 420 b 287 387 282 405 285 394 b 289 361 290 376 291 370 l 287 349 l 276 359 b 188 544 238 388 202 465 b 190 663 183 569 184 632 b 234 802 198 713 213 760 l 244 822 l 271 795 l 308 830 b 392 904 351 872 375 893 b 414 912 403 912 405 913 b 462 898 429 910 453 902 b 525 806 487 885 508 855 b 500 489 562 697 554 600 b 474 443 492 473 480 452 b 436 400 458 420 439 397 "},"R":{"ha":918,"x_min":0,"x_max":0,"o":"m 451 518 b 863 108 572 398 718 242 b 752 8 837 90 767 -15 b 338 406 652 87 453 310 b 307 311 315 397 327 398 b 255 34 283 179 258 44 b 108 52 248 12 141 51 b 34 325 123 225 182 184 b 183 476 29 326 184 470 b 209 616 183 479 206 600 b 174 583 210 619 199 609 b 76 591 114 533 156 522 b 24 643 47 619 24 642 b 253 863 88 716 177 817 b 250 889 253 870 251 883 l 260 891 b 281 912 276 888 270 915 b 299 929 289 910 292 923 b 336 913 307 925 333 913 b 581 964 413 943 506 986 b 451 518 809 857 581 648 m 390 737 b 429 714 371 651 359 636 b 497 803 460 749 478 773 b 407 767 469 800 429 784 b 390 737 389 765 397 753 "},"r":{"ha":918,"x_min":0,"x_max":0,"o":"m 451 518 b 581 964 581 648 809 857 b 336 913 506 986 413 943 b 299 929 333 913 307 925 b 281 912 292 923 289 910 b 260 891 270 915 276 888 l 250 889 b 253 863 251 883 253 870 b 24 643 177 817 88 716 b 76 591 24 642 47 619 b 174 583 156 522 114 533 b 209 616 199 609 210 619 b 183 476 206 600 183 479 b 34 325 184 470 29 326 b 108 52 182 184 123 225 b 255 34 141 51 248 12 b 307 311 258 44 283 179 b 338 406 327 398 315 397 b 752 8 453 310 652 87 b 863 108 767 -15 837 90 b 451 518 718 242 572 398 m 390 737 b 407 767 397 753 389 765 b 497 803 429 784 469 800 b 429 714 478 773 460 749 b 390 737 359 636 371 651 "},"S":{"ha":507,"x_min":0,"x_max":0,"o":"m 412 830 b 195 611 344 795 236 690 b 419 597 262 597 366 624 b 480 400 492 569 526 466 b 142 -23 388 260 262 101 l 92 21 b 32 76 59 51 43 65 b 320 449 132 193 265 343 b 235 451 320 449 281 450 b 22 574 107 450 47 468 b 272 925 14 702 169 827 b 435 996 360 991 350 1004 b 537 926 472 997 527 952 b 516 889 537 925 527 908 b 466 801 497 856 480 817 b 412 830 463 802 423 825 "},"s":{"ha":507,"x_min":0,"x_max":0,"o":"m 412 830 b 466 801 423 825 463 802 b 516 889 480 817 497 856 b 537 926 527 908 537 925 b 435 996 527 952 472 997 b 272 925 350 1004 360 991 b 22 574 169 827 14 702 b 235 451 47 468 107 450 b 320 449 281 450 320 449 b 32 76 265 343 132 193 b 92 21 43 65 59 51 l 142 -23 b 480 400 262 101 388 260 b 419 597 526 466 492 569 b 195 611 366 624 262 597 b 412 830 236 690 344 795 "},"T":{"ha":703,"x_min":0,"x_max":0,"o":"m 916 1122 b 928 976 916 1114 937 978 b 614 940 922 972 748 953 b 567 920 556 936 582 936 b 538 1 518 810 551 132 b 452 2 516 1 497 1 b 389 7 411 2 390 4 b 396 880 387 64 385 794 b 351 914 400 933 402 916 b 313 864 294 910 324 896 b 149 867 255 857 207 886 b 77 962 65 838 99 905 b 123 1031 59 1013 78 1020 b 916 1121 310 1064 701 1107 "},"t":{"ha":703,"x_min":0,"x_max":0,"o":"m 916 1121 b 123 1031 701 1107 310 1064 b 77 962 78 1020 59 1013 b 149 867 99 905 65 838 b 313 864 207 886 255 857 b 351 914 324 896 294 910 b 396 880 402 916 400 933 b 389 7 385 794 387 64 b 452 2 390 4 411 2 b 538 1 497 1 516 1 b 567 920 551 132 518 810 b 614 940 582 936 556 936 b 928 976 748 953 922 972 b 916 1122 937 978 916 1114 "},"U":{"ha":568,"x_min":0,"x_max":0,"o":"m 594 789 b 591 734 575 778 597 744 b 580 677 586 727 575 686 b 264 93 505 456 555 75 b 59 731 11 160 18 498 b 83 837 72 798 80 834 b 228 807 75 842 244 811 b 295 254 199 623 129 347 b 418 675 351 259 393 502 b 402 692 407 677 408 684 b 399 782 386 711 402 756 b 414 821 397 810 413 800 b 419 838 413 833 417 832 b 448 862 427 847 442 843 b 462 878 454 874 457 877 b 494 876 481 874 475 891 b 555 870 509 853 545 879 b 587 833 565 868 575 841 b 590 822 593 832 593 831 b 595 805 585 813 598 813 b 594 789 595 797 604 802 "},"u":{"ha":568,"x_min":0,"x_max":0,"o":"m 594 789 b 595 805 604 802 595 797 b 590 822 598 813 585 813 b 587 833 593 831 593 832 b 555 870 575 841 565 868 b 494 876 545 879 509 853 b 462 878 475 891 481 874 b 448 862 457 877 454 874 b 419 838 442 843 427 847 b 414 821 417 832 413 833 b 399 782 413 800 397 810 b 402 692 402 756 386 711 b 418 675 408 684 407 677 b 295 254 393 502 351 259 b 228 807 129 347 199 623 b 83 837 244 811 75 842 b 59 731 80 834 72 798 b 264 93 18 498 11 160 b 580 677 555 75 505 456 b 591 734 575 686 586 727 b 594 789 597 744 575 778 "},"Ù":{"ha":568,"x_min":0,"x_max":0,"o":"m 594 789 b 591 734 575 778 597 744 b 580 677 586 727 575 686 b 264 93 505 456 555 75 b 59 731 11 160 18 498 b 83 837 72 798 80 834 b 228 807 75 842 244 811 b 295 254 199 623 129 347 b 418 675 351 259 393 502 b 402 692 407 677 408 684 b 399 782 386 711 402 756 b 414 821 397 810 413 800 b 419 838 413 833 417 832 b 448 862 427 847 442 843 b 462 878 454 874 457 877 b 494 876 481 874 475 891 b 555 870 509 853 545 879 b 587 833 565 868 575 841 b 590 822 593 832 593 831 b 595 805 585 813 598 813 b 594 789 595 797 604 802 "},"Ú":{"ha":568,"x_min":0,"x_max":0,"o":"m 594 789 b 595 805 604 802 595 797 b 590 822 598 813 585 813 b 587 833 593 831 593 832 b 555 870 575 841 565 868 b 494 876 545 879 509 853 b 462 878 475 891 481 874 b 448 862 457 877 454 874 b 419 838 442 843 427 847 b 414 821 417 832 413 833 b 399 782 413 800 397 810 b 402 692 402 756 386 711 b 418 675 408 684 407 677 b 295 254 393 502 351 259 b 228 807 129 347 199 623 b 83 837 244 811 75 842 b 59 731 80 834 72 798 b 264 93 18 498 11 160 b 580 677 555 75 505 456 b 591 734 575 686 586 727 b 594 789 597 744 575 778 "},"Û":{"ha":568,"x_min":0,"x_max":0,"o":"m 594 789 b 591 734 575 778 597 744 b 580 677 586 727 575 686 b 264 93 505 456 555 75 b 59 731 11 160 18 498 b 83 837 72 798 80 834 b 228 807 75 842 244 811 b 295 254 199 623 129 347 b 418 675 351 259 393 502 b 402 692 407 677 408 684 b 399 782 386 711 402 756 b 414 821 397 810 413 800 b 419 838 413 833 417 832 b 448 862 427 847 442 843 b 462 878 454 874 457 877 b 494 876 481 874 475 891 b 555 870 509 853 545 879 b 587 833 565 868 575 841 b 590 822 593 832 593 831 b 595 805 585 813 598 813 b 594 789 595 797 604 802 "},"Ü":{"ha":568,"x_min":0,"x_max":0,"o":"m 594 789 b 595 805 604 802 595 797 b 590 822 598 813 585 813 b 587 833 593 831 593 832 b 555 870 575 841 565 868 b 494 876 545 879 509 853 b 462 878 475 891 481 874 b 448 862 457 877 454 874 b 419 838 442 843 427 847 b 414 821 417 832 413 833 b 399 782 413 800 397 810 b 402 692 402 756 386 711 b 418 675 408 684 407 677 b 295 254 393 502 351 259 b 228 807 129 347 199 623 b 83 837 244 811 75 842 b 59 731 80 834 72 798 b 264 93 18 498 11 160 b 580 677 555 75 505 456 b 591 734 575 686 586 727 b 594 789 597 744 575 778 "},"ù":{"ha":568,"x_min":0,"x_max":0,"o":"m 594 789 b 591 734 575 778 597 744 b 580 677 586 727 575 686 b 264 93 505 456 555 75 b 59 731 11 160 18 498 b 83 837 72 798 80 834 b 228 807 75 842 244 811 b 295 254 199 623 129 347 b 418 675 351 259 393 502 b 402 692 407 677 408 684 b 399 782 386 711 402 756 b 414 821 397 810 413 800 b 419 838 413 833 417 832 b 448 862 427 847 442 843 b 462 878 454 874 457 877 b 494 876 481 874 475 891 b 555 870 509 853 545 879 b 587 833 565 868 575 841 b 590 822 593 832 593 831 b 595 805 585 813 598 813 b 594 789 595 797 604 802 "},"ú":{"ha":568,"x_min":0,"x_max":0,"o":"m 594 789 b 595 805 604 802 595 797 b 590 822 598 813 585 813 b 587 833 593 831 593 832 b 555 870 575 841 565 868 b 494 876 545 879 509 853 b 462 878 475 891 481 874 b 448 862 457 877 454 874 b 419 838 442 843 427 847 b 414 821 417 832 413 833 b 399 782 413 800 397 810 b 402 692 402 756 386 711 b 418 675 408 684 407 677 b 295 254 393 502 351 259 b 228 807 129 347 199 623 b 83 837 244 811 75 842 b 59 731 80 834 72 798 b 264 93 18 498 11 160 b 580 677 555 75 505 456 b 591 734 575 686 586 727 b 594 789 597 744 575 778 "},"û":{"ha":568,"x_min":0,"x_max":0,"o":"m 594 789 b 591 734 575 778 597 744 b 580 677 586 727 575 686 b 264 93 505 456 555 75 b 59 731 11 160 18 498 b 83 837 72 798 80 834 b 228 807 75 842 244 811 b 295 254 199 623 129 347 b 418 675 351 259 393 502 b 402 692 407 677 408 684 b 399 782 386 711 402 756 b 414 821 397 810 413 800 b 419 838 413 833 417 832 b 448 862 427 847 442 843 b 462 878 454 874 457 877 b 494 876 481 874 475 891 b 555 870 509 853 545 879 b 587 833 565 868 575 841 b 590 822 593 832 593 831 b 595 805 585 813 598 813 b 594 789 595 797 604 802 "},"ü":{"ha":568,"x_min":0,"x_max":0,"o":"m 594 789 b 595 805 604 802 595 797 b 590 822 598 813 585 813 b 587 833 593 831 593 832 b 555 870 575 841 565 868 b 494 876 545 879 509 853 b 462 878 475 891 481 874 b 448 862 457 877 454 874 b 419 838 442 843 427 847 b 414 821 417 832 413 833 b 399 782 413 800 397 810 b 402 692 402 756 386 711 b 418 675 408 684 407 677 b 295 254 393 502 351 259 b 228 807 129 347 199 623 b 83 837 244 811 75 842 b 59 731 80 834 72 798 b 264 93 18 498 11 160 b 580 677 555 75 505 456 b 591 734 575 686 586 727 b 594 789 597 744 575 778 "},"V":{"ha":679,"x_min":0,"x_max":0,"o":"m 649 962 b 769 872 675 938 791 899 b 347 138 718 770 419 312 b 358 129 350 136 355 131 b 344 110 355 124 348 115 b 313 41 371 65 315 81 b 291 30 308 24 309 25 b 272 13 286 34 276 13 b 241 19 261 17 252 31 b 223 14 230 13 232 12 b 196 40 213 21 209 34 b 176 62 187 46 189 59 b 153 98 158 66 174 89 b 94 574 144 246 128 299 b 65 758 84 653 76 710 b 56 794 66 778 70 781 b 124 882 92 816 77 882 b 135 887 130 880 131 880 b 155 893 140 900 148 888 b 225 859 175 887 189 857 b 243 851 242 856 243 856 b 258 823 244 832 249 833 b 259 795 274 818 254 802 b 229 757 266 792 235 764 b 278 346 229 706 254 520 b 649 962 416 576 498 714 "},"v":{"ha":679,"x_min":0,"x_max":0,"o":"m 649 962 b 278 346 498 714 416 576 b 229 757 254 520 229 706 b 259 795 235 764 266 792 b 258 823 254 802 274 818 b 243 851 249 833 244 832 b 225 859 243 856 242 856 b 155 893 189 857 175 887 b 135 887 148 888 140 900 b 124 882 131 880 130 880 b 56 794 77 882 92 816 b 65 758 70 781 66 778 b 94 574 76 710 84 653 b 153 98 128 299 144 246 b 176 62 174 89 158 66 b 196 40 189 59 187 46 b 223 14 209 34 213 21 b 241 19 232 12 230 13 b 272 13 252 31 261 17 b 291 30 276 13 286 34 b 313 41 309 25 308 24 b 344 110 315 81 371 65 b 358 129 348 115 355 124 b 347 138 355 131 350 136 b 769 872 419 312 718 770 b 649 962 791 899 675 938 "},"W":{"ha":911,"x_min":0,"x_max":0,"o":"m 676 102 b 689 92 679 100 686 95 b 677 65 683 84 670 74 b 675 55 681 58 681 58 b 671 44 670 53 670 51 b 665 27 674 32 666 36 b 639 9 666 17 638 23 b 613 2 637 -10 627 -2 b 589 -15 607 -3 594 -23 b 522 0 577 -9 539 -4 b 503 37 519 9 519 38 b 417 401 454 142 442 263 b 325 137 362 281 335 196 b 312 97 334 118 301 130 b 279 76 297 93 286 94 b 267 64 273 63 272 62 b 226 55 250 67 240 48 b 204 56 216 62 209 48 b 193 59 203 59 195 55 b 178 66 187 63 187 60 b 143 99 170 63 158 95 b 129 132 124 104 150 125 b 121 157 109 143 131 144 b 108 336 115 196 123 226 b 63 789 89 525 74 641 b 70 818 80 803 50 807 b 80 843 86 825 65 840 b 87 852 86 845 87 847 b 100 866 86 863 97 857 b 133 885 106 878 124 878 b 148 888 136 892 144 879 l 152 893 b 165 883 155 891 162 886 b 205 885 190 906 178 874 b 223 876 214 887 212 871 b 231 872 230 877 231 877 b 247 861 232 864 244 867 b 259 853 250 855 253 858 b 262 800 269 848 251 803 b 259 780 268 794 250 789 b 257 750 269 766 246 769 b 248 738 258 744 244 747 b 240 723 251 728 239 733 b 228 684 233 697 224 722 b 253 412 233 602 243 489 b 355 656 286 474 334 592 b 357 665 359 660 359 661 b 368 685 353 675 375 673 b 391 699 362 695 383 696 l 391 720 b 421 728 403 720 412 717 b 467 739 433 740 454 744 b 475 738 469 736 471 736 b 498 732 484 743 488 729 b 531 711 511 734 518 708 b 536 687 541 714 535 694 b 567 643 580 669 533 665 b 590 291 543 549 564 434 b 868 991 619 369 860 976 b 1004 940 864 998 983 949 b 676 102 943 754 732 243 "},"w":{"ha":911,"x_min":0,"x_max":0,"o":"m 676 102 b 1004 940 732 243 943 754 b 868 991 983 949 864 998 b 590 291 860 976 619 369 b 567 643 564 434 543 549 b 536 687 533 665 580 669 b 531 711 535 694 541 714 b 498 732 518 708 511 734 b 475 738 488 729 484 743 b 467 739 471 736 469 736 b 421 728 454 744 433 740 b 391 720 412 717 403 720 l 391 699 b 368 685 383 696 362 695 b 357 665 375 673 353 675 b 355 656 359 661 359 660 b 253 412 334 592 286 474 b 228 684 243 489 233 602 b 240 723 224 722 233 697 b 248 738 239 733 251 728 b 257 750 244 747 258 744 b 259 780 246 769 269 766 b 262 800 250 789 268 794 b 259 853 251 803 269 848 b 247 861 253 858 250 855 b 231 872 244 867 232 864 b 223 876 231 877 230 877 b 205 885 212 871 214 887 b 165 883 178 874 190 906 b 152 893 162 886 155 891 l 148 888 b 133 885 144 879 136 892 b 100 866 124 878 106 878 b 87 852 97 857 86 863 b 80 843 87 847 86 845 b 70 818 65 840 86 825 b 63 789 50 807 80 803 b 108 336 74 641 89 525 b 121 157 123 226 115 196 b 129 132 131 144 109 143 b 143 99 150 125 124 104 b 178 66 158 95 170 63 b 193 59 187 60 187 63 b 204 56 195 55 203 59 b 226 55 209 48 216 62 b 267 64 240 48 250 67 b 279 76 272 62 273 63 b 312 97 286 94 297 93 b 325 137 301 130 334 118 b 417 401 335 196 362 281 b 503 37 442 263 454 142 b 522 0 519 38 519 9 b 589 -15 539 -4 577 -9 b 613 2 594 -23 607 -3 b 639 9 627 -2 637 -10 b 665 27 638 23 666 17 b 671 44 666 36 674 32 b 675 55 670 51 670 53 b 677 65 681 58 681 58 b 689 92 670 74 683 84 b 676 102 686 95 679 100 "},"X":{"ha":851,"x_min":0,"x_max":0,"o":"m 609 562 b 756 255 867 338 894 422 b 642 342 743 262 704 293 b 472 471 492 462 475 474 b 87 21 406 385 132 62 b 30 69 85 21 60 42 l -24 116 b 353 569 82 249 285 469 b 139 744 319 607 189 698 b 93 743 127 744 104 743 b 84 759 91 747 88 759 b 78 783 78 759 87 784 b 72 800 69 784 77 798 b 60 817 69 803 67 813 b 86 848 67 825 80 840 b 121 903 83 879 84 913 b 147 922 133 933 135 908 b 191 909 152 933 176 919 b 236 895 194 896 238 907 b 253 868 244 884 240 873 b 261 857 263 863 263 862 b 304 807 273 833 266 835 b 448 693 345 781 411 719 b 558 872 477 733 558 851 b 564 887 554 879 567 881 b 575 905 561 895 580 896 b 594 925 571 918 597 909 b 615 939 592 940 613 928 b 625 944 616 944 617 945 b 638 949 633 944 635 944 b 698 945 648 961 702 949 b 719 932 703 933 719 953 b 741 918 718 920 745 932 b 748 909 741 911 741 910 b 761 886 764 909 746 890 b 793 814 774 868 786 838 b 675 730 754 787 709 755 b 665 739 672 732 667 737 b 567 597 639 701 590 631 b 609 562 566 596 585 580 "},"x":{"ha":851,"x_min":0,"x_max":0,"o":"m 609 562 b 567 597 585 580 566 596 b 665 739 590 631 639 701 b 675 730 667 737 672 732 b 793 814 709 755 754 787 b 761 886 786 838 774 868 b 748 909 746 890 764 909 b 741 918 741 910 741 911 b 719 932 745 932 718 920 b 698 945 719 953 703 933 b 638 949 702 949 648 961 b 625 944 635 944 633 944 b 615 939 617 945 616 944 b 594 925 613 928 592 940 b 575 905 597 909 571 918 b 564 887 580 896 561 895 b 558 872 567 881 554 879 b 448 693 558 851 477 733 b 304 807 411 719 345 781 b 261 857 266 835 273 833 b 253 868 263 862 263 863 b 236 895 240 873 244 884 b 191 909 238 907 194 896 b 147 922 176 919 152 933 b 121 903 135 908 133 933 b 86 848 84 913 83 879 b 60 817 80 840 67 825 b 72 800 67 813 69 803 b 78 783 77 798 69 784 b 84 759 87 784 78 759 b 93 743 88 759 91 747 b 139 744 104 743 127 744 b 353 569 189 698 319 607 b -24 116 285 469 82 249 l 30 69 b 87 21 60 42 85 21 b 472 471 132 62 406 385 b 642 342 475 474 492 462 b 756 255 704 293 743 262 b 609 562 894 422 867 338 "},"Y":{"ha":747,"x_min":0,"x_max":0,"o":"m 807 954 b 834 899 836 940 860 926 b 844 868 841 890 845 879 b 799 849 832 863 810 853 b 751 783 784 830 773 764 b 630 650 722 804 679 709 b 465 303 553 526 480 415 b 459 288 468 296 455 296 b 454 280 460 284 459 282 b 443 262 445 277 452 265 b 441 -25 426 216 451 -14 b 294 -28 437 -29 296 -31 b 284 255 290 49 284 177 b 266 271 263 257 279 265 b 257 286 255 274 266 283 b 183 482 231 347 223 386 b 70 799 119 646 107 683 b 61 819 77 810 64 813 b 75 840 61 821 75 838 b 64 858 75 842 67 854 b 83 885 73 866 85 872 b 89 899 83 895 83 897 b 113 918 98 906 103 914 b 131 926 113 923 121 926 b 146 936 140 926 142 930 b 163 923 151 933 159 926 b 202 918 192 941 182 934 b 227 915 207 918 228 927 b 236 908 228 909 229 908 b 244 903 242 908 244 907 b 257 895 243 897 256 898 b 265 854 276 884 273 885 b 256 806 248 814 273 824 b 347 484 222 742 325 553 b 607 877 447 621 494 746 b 688 964 657 940 639 935 b 720 1002 696 974 710 998 b 746 1000 731 1007 734 998 b 807 954 786 1014 791 989 "},"y":{"ha":747,"x_min":0,"x_max":0,"o":"m 807 954 b 746 1000 791 989 786 1014 b 720 1002 734 998 731 1007 b 688 964 710 998 696 974 b 607 877 639 935 657 940 b 347 484 494 746 447 621 b 256 806 325 553 222 742 b 265 854 273 824 248 814 b 257 895 273 885 276 884 b 244 903 256 898 243 897 b 236 908 244 907 242 908 b 227 915 229 908 228 909 b 202 918 228 927 207 918 b 163 923 182 934 192 941 b 146 936 159 926 151 933 b 131 926 142 930 140 926 b 113 918 121 926 113 923 b 89 899 103 914 98 906 b 83 885 83 897 83 895 b 64 858 85 872 73 866 b 75 840 67 854 75 842 b 61 819 75 838 61 821 b 70 799 64 813 77 810 b 183 482 107 683 119 646 b 257 286 223 386 231 347 b 266 271 266 283 255 274 b 284 255 279 265 263 257 b 294 -28 284 177 290 49 b 441 -25 296 -31 437 -29 b 443 262 451 -14 426 216 b 454 280 452 265 445 277 b 459 288 459 282 460 284 b 465 303 455 296 468 296 b 630 650 480 415 553 526 b 751 783 679 709 722 804 b 799 849 773 764 784 830 b 844 868 810 853 832 863 b 834 899 845 879 841 890 b 807 954 860 926 836 940 "},"Ý":{"ha":747,"x_min":0,"x_max":0,"o":"m 807 954 b 834 899 836 940 860 926 b 844 868 841 890 845 879 b 799 849 832 863 810 853 b 751 783 784 830 773 764 b 630 650 722 804 679 709 b 465 303 553 526 480 415 b 459 288 468 296 455 296 b 454 280 460 284 459 282 b 443 262 445 277 452 265 b 441 -25 426 216 451 -14 b 294 -28 437 -29 296 -31 b 284 255 290 49 284 177 b 266 271 263 257 279 265 b 257 286 255 274 266 283 b 183 482 231 347 223 386 b 70 799 119 646 107 683 b 61 819 77 810 64 813 b 75 840 61 821 75 838 b 64 858 75 842 67 854 b 83 885 73 866 85 872 b 89 899 83 895 83 897 b 113 918 98 906 103 914 b 131 926 113 923 121 926 b 146 936 140 926 142 930 b 163 923 151 933 159 926 b 202 918 192 941 182 934 b 227 915 207 918 228 927 b 236 908 228 909 229 908 b 244 903 242 908 244 907 b 257 895 243 897 256 898 b 265 854 276 884 273 885 b 256 806 248 814 273 824 b 347 484 222 742 325 553 b 607 877 447 621 494 746 b 688 964 657 940 639 935 b 720 1002 696 974 710 998 b 746 1000 731 1007 734 998 b 807 954 786 1014 791 989 "},"ý":{"ha":747,"x_min":0,"x_max":0,"o":"m 807 954 b 746 1000 791 989 786 1014 b 720 1002 734 998 731 1007 b 688 964 710 998 696 974 b 607 877 639 935 657 940 b 347 484 494 746 447 621 b 256 806 325 553 222 742 b 265 854 273 824 248 814 b 257 895 273 885 276 884 b 244 903 256 898 243 897 b 236 908 244 907 242 908 b 227 915 229 908 228 909 b 202 918 228 927 207 918 b 163 923 182 934 192 941 b 146 936 159 926 151 933 b 131 926 142 930 140 926 b 113 918 121 926 113 923 b 89 899 103 914 98 906 b 83 885 83 897 83 895 b 64 858 85 872 73 866 b 75 840 67 854 75 842 b 61 819 75 838 61 821 b 70 799 64 813 77 810 b 183 482 107 683 119 646 b 257 286 223 386 231 347 b 266 271 266 283 255 274 b 284 255 279 265 263 257 b 294 -28 284 177 290 49 b 441 -25 296 -31 437 -29 b 443 262 451 -14 426 216 b 454 280 452 265 445 277 b 459 288 459 282 460 284 b 465 303 455 296 468 296 b 630 650 480 415 553 526 b 751 783 679 709 722 804 b 799 849 773 764 784 830 b 844 868 810 853 832 863 b 834 899 845 879 841 890 b 807 954 860 926 836 940 "},"ÿ":{"ha":747,"x_min":0,"x_max":0,"o":"m 807 954 b 834 899 836 940 860 926 b 844 868 841 890 845 879 b 799 849 832 863 810 853 b 751 783 784 830 773 764 b 630 650 722 804 679 709 b 465 303 553 526 480 415 b 459 288 468 296 455 296 b 454 280 460 284 459 282 b 443 262 445 277 452 265 b 441 -25 426 216 451 -14 b 294 -28 437 -29 296 -31 b 284 255 290 49 284 177 b 266 271 263 257 279 265 b 257 286 255 274 266 283 b 183 482 231 347 223 386 b 70 799 119 646 107 683 b 61 819 77 810 64 813 b 75 840 61 821 75 838 b 64 858 75 842 67 854 b 83 885 73 866 85 872 b 89 899 83 895 83 897 b 113 918 98 906 103 914 b 131 926 113 923 121 926 b 146 936 140 926 142 930 b 163 923 151 933 159 926 b 202 918 192 941 182 934 b 227 915 207 918 228 927 b 236 908 228 909 229 908 b 244 903 242 908 244 907 b 257 895 243 897 256 898 b 265 854 276 884 273 885 b 256 806 248 814 273 824 b 347 484 222 742 325 553 b 607 877 447 621 494 746 b 688 964 657 940 639 935 b 720 1002 696 974 710 998 b 746 1000 731 1007 734 998 b 807 954 786 1014 791 989 "},"Ÿ":{"ha":747,"x_min":0,"x_max":0,"o":"m 807 954 b 746 1000 791 989 786 1014 b 720 1002 734 998 731 1007 b 688 964 710 998 696 974 b 607 877 639 935 657 940 b 347 484 494 746 447 621 b 256 806 325 553 222 742 b 265 854 273 824 248 814 b 257 895 273 885 276 884 b 244 903 256 898 243 897 b 236 908 244 907 242 908 b 227 915 229 908 228 909 b 202 918 228 927 207 918 b 163 923 182 934 192 941 b 146 936 159 926 151 933 b 131 926 142 930 140 926 b 113 918 121 926 113 923 b 89 899 103 914 98 906 b 83 885 83 897 83 895 b 64 858 85 872 73 866 b 75 840 67 854 75 842 b 61 819 75 838 61 821 b 70 799 64 813 77 810 b 183 482 107 683 119 646 b 257 286 223 386 231 347 b 266 271 266 283 255 274 b 284 255 279 265 263 257 b 294 -28 284 177 290 49 b 441 -25 296 -31 437 -29 b 443 262 451 -14 426 216 b 454 280 452 265 445 277 b 459 288 459 282 460 284 b 465 303 455 296 468 296 b 630 650 480 415 553 526 b 751 783 679 709 722 804 b 799 849 773 764 784 830 b 844 868 810 853 832 863 b 834 899 845 879 841 890 b 807 954 860 926 836 940 "},"Z":{"ha":874,"x_min":0,"x_max":0,"o":"m 808 417 b 845 275 810 410 838 300 b 70 69 760 242 196 122 b 33 49 62 53 50 34 b -36 76 11 62 -33 29 b -71 119 -33 105 -68 101 b -63 162 -72 129 -74 147 b -60 178 -58 169 -58 172 b -53 197 -66 197 -58 187 b -37 204 -51 202 -49 203 b 1 240 -20 199 -10 232 b 21 250 8 240 12 247 b 507 749 -4 213 525 755 b 329 707 504 752 370 720 b 302 686 297 701 319 695 b 288 665 286 682 305 666 b 271 649 273 665 284 646 b 262 645 265 651 264 650 b 256 641 261 641 259 640 b 221 615 252 645 229 623 b 202 623 217 617 204 624 b 182 632 197 624 190 635 b 172 638 175 630 175 631 b 150 652 172 653 148 640 b 132 676 152 673 130 659 b 126 686 132 683 131 685 b 121 701 116 687 128 697 b 113 735 115 709 116 726 b 118 757 114 741 125 748 b 131 780 114 766 137 767 b 148 801 127 798 148 783 b 166 818 149 818 163 804 b 179 827 168 828 175 819 b 186 831 180 829 183 831 b 594 929 285 865 495 901 b 622 929 604 928 613 934 b 635 930 626 925 630 935 b 649 928 641 924 644 938 b 667 923 655 917 661 933 b 681 915 671 915 678 925 b 696 908 683 905 694 916 b 728 872 707 897 721 886 b 738 842 732 864 736 849 b 740 829 745 838 733 835 b 739 812 748 822 732 820 b 737 797 746 802 732 805 b 732 777 742 788 727 788 b 727 765 735 765 724 775 b 724 759 728 760 727 759 b 716 746 717 760 721 748 b 283 291 583 600 494 512 b 808 417 276 292 798 413 "},"z":{"ha":874,"x_min":0,"x_max":0,"o":"m 808 417 b 283 291 798 413 276 292 b 716 746 494 512 583 600 b 724 759 721 748 717 760 b 727 765 727 759 728 760 b 732 777 724 775 735 765 b 737 797 727 788 742 788 b 739 812 732 805 746 802 b 740 829 732 820 748 822 b 738 842 733 835 745 838 b 728 872 736 849 732 864 b 696 908 721 886 707 897 b 681 915 694 916 683 905 b 667 923 678 925 671 915 b 649 928 661 933 655 917 b 635 930 644 938 641 924 b 622 929 630 935 626 925 b 594 929 613 934 604 928 b 186 831 495 901 285 865 b 179 827 183 831 180 829 b 166 818 175 819 168 828 b 148 801 163 804 149 818 b 131 780 148 783 127 798 b 118 757 137 767 114 766 b 113 735 125 748 114 741 b 121 701 116 726 115 709 b 126 686 128 697 116 687 b 132 676 131 685 132 683 b 150 652 130 659 152 673 b 172 638 148 640 172 653 b 182 632 175 631 175 630 b 202 623 190 635 197 624 b 221 615 204 624 217 617 b 256 641 229 623 252 645 b 262 645 259 640 261 641 b 271 649 264 650 265 651 b 288 665 284 646 273 665 b 302 686 305 666 286 682 b 329 707 319 695 297 701 b 507 749 370 720 504 752 b 21 250 525 755 -4 213 b 1 240 12 247 8 240 b -37 204 -10 232 -20 199 b -53 197 -49 203 -51 202 b -60 178 -58 187 -66 197 b -63 162 -58 172 -58 169 b -71 119 -74 147 -72 129 b -36 76 -68 101 -33 105 b 33 49 -33 29 11 62 b 70 69 50 34 62 53 b 845 275 196 122 760 242 b 808 417 838 300 810 410 "},"[":{"ha":625,"x_min":0,"x_max":0,"o":"m 556 1062 b 559 889 556 1055 571 883 b 503 882 540 881 556 879 b 273 857 439 889 354 852 b 287 160 258 605 310 389 b 285 100 287 143 280 110 b 506 144 331 109 495 143 b 515 144 506 144 515 144 b 548 -24 521 111 547 -12 b 456 -52 548 -32 542 -34 b 245 -111 372 -73 309 -78 b 221 -117 241 -120 226 -103 b 209 -119 216 -124 215 -124 b 176 -117 192 -104 189 -133 b 151 -112 167 -105 160 -129 b 130 -108 144 -100 136 -108 b 88 -67 122 -92 93 -86 b 74 -38 77 -58 85 -47 b 67 -11 56 -29 83 -23 b 65 2 60 -4 60 -3 b 65 16 70 8 70 8 b 69 44 54 31 77 28 b 88 784 150 246 77 540 b 73 932 91 879 76 871 b 68 981 54 949 97 954 b 85 1006 79 988 93 992 b 101 1028 77 1018 104 1017 b 140 1060 103 1042 132 1054 b 166 1066 147 1070 157 1052 b 184 1068 175 1074 177 1075 b 218 1073 189 1052 211 1079 b 235 1062 225 1061 227 1059 b 253 1058 246 1066 250 1066 b 351 1055 276 1045 319 1041 b 507 1073 399 1076 459 1071 b 556 1062 520 1069 549 1071 "},"]":{"ha":625,"x_min":0,"x_max":0,"o":"m 560 949 b 560 935 555 944 555 943 b 555 907 571 920 547 923 b 537 167 474 706 548 412 b 552 20 533 72 548 81 b 556 -29 571 3 527 -3 b 540 -55 546 -36 532 -41 b 523 -77 547 -66 520 -65 b 485 -109 522 -90 493 -102 b 459 -114 478 -119 468 -100 b 441 -116 450 -123 447 -123 b 407 -121 435 -100 413 -128 b 390 -110 400 -109 397 -107 b 372 -106 378 -115 374 -114 b 273 -104 349 -93 306 -90 b 117 -122 225 -125 166 -119 b 68 -111 105 -117 76 -119 b 66 63 69 -104 54 69 b 121 70 85 71 68 72 b 351 94 185 63 271 99 b 338 791 366 346 314 563 b 339 852 337 809 344 841 b 118 808 294 843 129 808 b 110 807 118 808 110 807 b 76 976 103 840 77 964 b 168 1003 76 984 83 986 b 379 1062 252 1024 316 1030 b 404 1068 384 1071 399 1055 b 416 1071 409 1075 409 1075 b 449 1069 432 1056 435 1084 b 474 1064 458 1056 465 1081 b 495 1060 480 1052 488 1060 b 537 1018 503 1043 531 1038 b 551 990 547 1010 540 999 b 557 963 568 980 541 974 b 560 949 565 955 565 955 "}," ":{"ha":435,"x_min":0,"x_max":0,"o":""},"­":{"ha":0,"x_min":0,"x_max":0,"o":""},"":{"ha":919,"x_min":0,"x_max":0,"o":"m 1178 -321 b 474 292 988 -151 649 127 l 468 288 b 456 129 461 284 461 289 b 450 11 453 63 453 31 b 303 17 404 12 341 14 b 304 124 301 46 302 70 b 306 197 305 164 306 196 b 116 97 308 199 115 93 b 43 225 117 88 84 150 l 52 231 b 310 374 53 231 309 373 b 312 670 307 380 338 600 b 309 693 302 689 299 690 b 328 721 309 707 325 706 b 379 733 329 747 360 732 b 431 755 392 737 426 766 b 456 742 439 747 448 761 b 479 722 465 727 463 723 b 478 673 479 710 479 685 b 499 591 496 644 501 622 l 473 584 b 470 492 473 557 472 521 l 493 479 b 801 768 582 544 830 651 b 205 673 659 871 280 780 b 246 581 214 655 244 589 b 107 526 257 581 102 495 b 317 915 -65 723 123 855 b 610 372 919 1118 1278 712 b 1287 -219 737 254 1281 -202 b 1178 -321 1278 -221 1193 -353 "},"":{"ha":1150,"x_min":0,"x_max":0,"o":"m 988 2 b 29 49 813 11 105 63 b 9 53 22 42 16 60 b -4 63 3 47 -3 59 b -23 70 -9 67 -22 57 b -42 83 -24 83 -43 72 b -56 102 -40 96 -57 92 b -60 110 -56 105 -57 108 b -63 191 -75 129 -70 172 b -51 213 -67 205 -49 197 b -36 232 -53 229 -36 218 b -23 245 -37 244 -25 235 b -10 255 -22 254 -12 248 b -1 260 -8 262 -3 257 b 323 408 73 297 246 374 b 214 423 309 416 232 411 b 203 426 212 427 204 423 b 193 432 202 430 194 428 b 169 448 186 438 174 438 b 152 462 166 454 161 453 b 144 475 147 462 151 475 b 149 604 115 514 126 571 b 791 856 276 723 588 802 b 858 880 821 885 823 897 b 903 816 875 866 870 843 b 923 772 926 790 936 791 b 871 719 916 745 917 734 b 803 689 842 709 834 678 b 378 562 736 702 476 608 b 591 552 425 548 580 548 b 598 553 594 550 596 550 b 617 547 600 560 612 550 b 627 557 620 550 625 554 b 673 543 641 540 653 532 b 712 498 673 522 709 511 b 715 488 712 492 717 496 b 720 465 713 480 728 475 b 713 409 727 446 713 429 b 704 400 714 403 714 402 b 677 362 684 397 681 380 b 650 353 663 363 656 366 b 632 348 641 341 641 358 b 234 202 518 327 369 266 b 1074 148 383 189 967 158 b 1066 2 1076 146 1068 4 b 988 2 1064 -1 1038 -1 "},"":{"ha":875,"x_min":0,"x_max":0,"o":"m 796 -20 b 898 -329 813 -88 874 -250 b 755 -370 891 -322 755 -402 b 511 452 708 -287 527 385 b 288 383 479 443 318 395 b 169 11 251 292 157 103 b 81 -37 186 -48 133 -21 b 8 43 7 -58 5 -12 b 14 113 16 68 1 98 b 81 304 20 126 114 347 b 62 323 76 309 67 318 b 10 334 15 308 45 335 l 10 373 b -24 406 1 382 -15 398 b 3 436 -17 414 -4 429 b 10 480 -14 476 12 452 l 46 480 b 79 511 54 488 71 503 b 101 489 84 506 95 494 b 202 562 159 507 180 497 b 390 960 256 675 346 856 b 383 995 365 969 390 981 b 395 1026 374 1006 399 1011 b 436 1068 397 1058 407 1069 b 464 1125 441 1080 460 1123 b 597 1065 462 1128 611 1066 b 587 983 596 1041 561 1003 b 557 958 578 975 567 966 b 623 650 569 897 599 696 b 795 549 789 703 741 713 b 658 496 802 549 639 497 b 796 -20 660 481 777 47 m 430 588 b 473 603 454 595 473 602 b 447 719 472 609 452 698 b 375 570 428 680 385 595 b 430 588 386 574 400 578 "},"":{"ha":1115,"x_min":0,"x_max":0,"o":"m 784 9 b 695 21 737 15 697 20 b 770 797 687 32 775 800 b 794 1008 777 881 790 996 b 265 910 728 1013 255 944 b 203 902 268 882 223 905 b 154 872 190 895 166 879 b 132 883 149 876 137 885 b 80 919 100 872 113 925 b 81 986 62 919 83 969 b 53 1036 76 995 49 1034 b 63 1057 59 1044 62 1044 b 96 1108 64 1086 99 1059 b 205 1132 143 1098 172 1105 b 821 1217 431 1149 622 1200 b 829 1266 822 1228 826 1262 b 1021 1244 832 1269 1038 1252 b 1649 1302 1131 1250 1515 1280 b 1656 1304 1653 1301 1656 1302 b 1679 1308 1657 1309 1677 1301 b 1705 1300 1682 1317 1699 1303 b 1722 1313 1710 1304 1718 1310 b 1774 1288 1739 1295 1752 1278 b 1787 1283 1784 1290 1785 1289 b 1824 1244 1792 1270 1825 1254 b 1831 1228 1825 1237 1835 1239 b 1840 1199 1828 1212 1844 1220 b 1843 1167 1836 1184 1851 1176 b 1831 1145 1841 1164 1835 1154 b 1790 1097 1813 1105 1850 1108 b 1746 1050 1772 1026 1770 1076 b 1722 1037 1738 1036 1730 1046 b 1468 931 1729 1049 1487 938 b 1397 1077 1463 937 1409 1051 b 1005 1037 1319 1071 1014 1042 b 965 754 978 953 981 894 b 887 9 949 571 893 45 b 784 9 885 -3 894 -3 "},"":{"ha":722,"x_min":0,"x_max":0,"o":"m -151 -150 b -201 -92 -178 -120 -200 -94 b -74 29 -202 -88 -179 -66 b 266 333 47 139 136 218 b 438 485 329 387 406 456 b 489 538 492 534 495 537 b 305 524 479 539 389 532 b 234 514 282 522 252 517 b 219 512 231 513 224 512 b 207 510 213 511 208 510 b 201 510 206 509 203 509 b 195 510 199 512 197 511 b 186 511 193 508 190 508 b 176 512 180 515 180 515 b 166 514 173 508 172 508 b 155 517 161 519 159 520 b 143 522 148 514 147 514 b 131 528 139 528 138 529 b 121 533 123 526 123 527 b 108 542 120 540 114 544 b 103 547 105 541 104 542 b 96 557 102 552 99 555 b 90 565 91 558 90 561 b 86 572 90 568 88 572 b 83 578 84 573 83 576 b 80 584 83 580 81 583 b 79 590 79 585 78 587 b 77 596 79 592 79 595 b 75 604 75 598 74 601 b 74 615 76 607 75 612 b 75 627 72 619 73 622 b 76 638 78 632 78 635 b 79 649 73 643 74 644 b 83 661 85 653 86 654 b 88 672 81 669 81 669 b 94 682 94 674 95 675 b 99 692 93 689 94 691 b 106 700 103 693 105 695 b 112 708 107 705 109 707 b 119 714 115 708 118 711 b 123 718 119 717 121 719 b 128 722 125 718 127 719 b 133 726 129 725 131 727 b 139 729 134 725 137 727 b 169 749 141 731 154 740 b 244 800 184 758 217 781 b 536 997 350 875 450 942 b 658 1077 626 1054 651 1070 b 667 1083 662 1080 666 1083 b 669 1087 668 1083 669 1085 b 676 1093 669 1089 673 1091 b 684 1101 681 1094 683 1097 b 707 1109 685 1107 685 1107 l 729 1110 l 743 1125 b 774 1136 758 1142 765 1144 b 785 1132 776 1134 781 1132 b 816 1121 799 1132 814 1126 b 827 1116 818 1117 820 1116 l 835 1116 l 835 1097 b 837 1077 835 1088 836 1078 b 855 1060 838 1076 846 1068 b 871 1043 864 1052 871 1044 b 872 1038 870 1042 871 1039 b 861 1022 874 1035 872 1032 l 848 1009 l 851 1000 b 845 978 854 990 851 978 b 842 971 843 978 842 976 l 842 965 l 802 961 l 788 945 b 758 936 772 927 766 925 b 751 943 755 940 752 943 b 615 861 748 943 671 896 b 360 688 537 812 358 690 b 455 695 361 687 436 693 b 523 700 461 696 491 698 b 584 705 554 702 582 704 b 631 705 592 707 630 708 b 637 705 632 704 635 704 b 645 703 640 705 643 705 b 653 702 647 702 650 701 b 661 698 656 703 659 702 b 670 696 664 694 665 694 b 679 692 675 698 676 698 b 688 686 681 686 683 685 b 696 682 694 687 695 687 b 703 675 697 677 699 675 b 710 670 707 675 709 674 b 716 664 711 666 713 664 b 721 660 719 664 721 662 b 725 653 721 657 723 654 b 729 648 728 651 730 649 b 730 644 728 646 729 645 b 740 621 734 642 740 626 b 742 617 739 619 740 617 b 743 612 743 617 744 615 b 744 604 742 610 742 606 b 744 598 746 602 746 600 b 744 589 742 595 742 593 b 743 581 747 585 747 584 b 742 572 740 579 740 577 b 740 562 745 566 744 565 b 736 551 736 559 735 557 b 732 542 737 545 737 543 b 729 534 728 541 727 540 b 725 526 730 527 730 526 b 721 520 722 526 721 525 b 716 513 721 516 719 514 b 711 508 714 512 711 510 b 706 503 710 505 708 503 b 702 500 704 503 702 502 b 694 490 702 499 698 494 b 682 481 689 486 684 482 b 660 465 681 480 671 473 b 546 370 634 448 608 426 b 364 210 490 320 476 308 b -25 -139 235 96 142 13 b -97 -203 -63 -173 -95 -201 b -151 -150 -100 -204 -110 -195 "},"":{"ha":1317,"x_min":0,"x_max":0,"o":"m 1312 490 b 1312 420 1317 469 1317 429 b 1307 405 1311 418 1309 412 b 1302 393 1305 399 1303 393 b 1299 390 1300 393 1299 392 b 1296 384 1299 387 1298 385 b 1291 377 1294 384 1292 380 b 1281 362 1290 374 1286 367 b 1126 248 1247 323 1222 305 b 866 111 1022 186 1001 175 b 111 -215 646 8 499 -55 b -5 -259 12 -255 -5 -262 b -35 -186 -5 -259 -18 -226 b -65 -110 -51 -146 -65 -112 b 122 -28 -65 -105 -40 -94 b 412 95 346 65 414 94 b 344 106 411 96 381 101 b 275 118 308 111 276 116 b 289 247 273 120 277 157 l 292 270 l 240 244 b 186 218 212 230 187 218 b 147 291 184 218 167 251 b 115 368 112 360 110 365 b 219 421 117 370 164 394 b 320 472 274 449 320 472 b 340 613 321 473 329 536 b 377 881 359 757 375 871 b 377 886 378 884 378 886 b 350 876 377 886 364 882 b 267 832 316 863 284 846 l 253 821 l 254 789 l 255 756 l 248 755 b 231 749 245 754 237 752 b 207 749 222 746 218 746 b 143 749 196 751 184 751 b 92 747 115 747 92 746 b 85 760 92 747 89 753 b 78 774 82 767 79 773 b 71 794 77 775 74 784 b 66 833 67 808 66 818 b 69 856 67 844 68 854 b 71 865 70 857 71 861 b 78 882 72 869 75 876 b 82 899 81 888 83 895 b 91 919 82 906 87 919 b 93 922 92 919 93 920 b 130 959 93 924 119 950 b 180 988 138 966 148 972 b 214 1007 198 997 213 1006 b 319 1048 221 1012 280 1035 b 644 1109 433 1085 538 1105 b 964 1075 760 1113 853 1103 b 1092 1025 1025 1060 1060 1046 b 1142 978 1113 1011 1142 984 b 1144 974 1142 976 1143 974 b 1166 926 1147 974 1161 943 b 1164 843 1172 906 1171 868 b 1157 821 1161 832 1158 822 b 1150 809 1156 821 1153 815 b 1138 790 1147 802 1141 794 b 1132 781 1135 786 1132 782 b 1063 713 1132 777 1081 727 b 949 631 1048 702 961 639 b 1002 625 943 627 947 627 b 1095 621 1034 624 1076 622 b 1193 607 1130 619 1187 610 b 1199 604 1194 606 1197 605 b 1213 599 1202 604 1208 602 b 1224 595 1219 597 1224 595 b 1242 583 1229 594 1242 585 b 1246 582 1242 582 1244 581 b 1249 581 1248 583 1249 582 b 1252 579 1249 580 1251 579 b 1282 549 1255 579 1282 552 b 1286 545 1282 548 1284 546 b 1289 540 1288 544 1289 542 b 1292 536 1289 538 1291 536 b 1312 490 1295 536 1307 509 m 507 592 b 512 585 506 584 508 581 b 518 587 513 586 516 587 b 641 643 537 589 578 608 b 908 812 757 708 854 770 b 978 882 937 835 980 878 b 861 922 972 891 909 913 b 695 938 800 935 773 938 b 557 929 624 938 560 934 b 549 841 553 922 549 878 l 549 799 l 543 799 b 521 692 535 799 537 807 b 507 592 514 642 508 596 m 1090 432 l 1104 443 l 1087 446 b 753 447 1011 458 864 459 b 595 417 692 440 617 426 b 586 401 586 414 586 413 b 577 373 586 380 584 373 b 571 371 574 373 571 372 b 564 368 571 369 568 368 b 555 365 560 368 556 367 b 549 362 554 362 552 362 b 540 361 546 363 542 363 b 502 365 535 357 512 360 b 485 367 494 370 493 370 b 475 355 479 364 476 360 b 441 109 473 342 441 113 b 549 152 441 105 443 106 b 989 365 729 232 926 326 b 1090 432 1031 390 1069 415 "}}}
